M48
; DRILL file {KiCad 8.0.4} date 2024-09-02T20:22:55+0200
; FORMAT={-:-/ absolute / metric / decimal}
; #@! TF.CreationDate,2024-09-02T20:22:55+02:00
; #@! TF.GenerationSoftware,Kicad,Pcbnew,8.0.4
; #@! TF.FileFunction,MixedPlating,1,4
FMAT,2
METRIC
; #@! TA.AperFunction,Plated,PTH,ViaDrill
T1C0.300
; #@! TA.AperFunction,Plated,PTH,ComponentDrill
T2C0.750
; #@! TA.AperFunction,Plated,PTH,ComponentDrill
T3C0.787
; #@! TA.AperFunction,Plated,PTH,ComponentDrill
T4C0.800
; #@! TA.AperFunction,Plated,PTH,ComponentDrill
T5C0.900
; #@! TA.AperFunction,Plated,PTH,ComponentDrill
T6C1.000
; #@! TA.AperFunction,Plated,PTH,ComponentDrill
T7C1.300
; #@! TA.AperFunction,NonPlated,NPTH,ComponentDrill
T8C4.300
%
G90
G05
T1
X1.85Y54.344
X1.85Y51.344
X1.85Y48.344
X1.85Y15.344
X1.85Y12.344
X1.85Y9.344
X1.85Y6.344
X1.85Y3.344
X4.85Y54.344
X4.85Y51.344
X4.85Y42.344
X4.85Y39.344
X4.85Y12.344
X7.85Y54.344
X7.85Y15.344
X7.85Y9.344
X7.85Y6.344
X10.85Y54.344
X10.85Y48.344
X10.85Y30.344
X10.85Y24.344
X10.85Y9.344
X10.85Y6.344
X13.85Y54.344
X13.85Y48.344
X13.85Y45.344
X13.85Y42.344
X13.85Y39.344
X13.85Y36.344
X13.85Y33.344
X13.85Y30.344
X13.85Y27.344
X13.85Y21.344
X13.85Y6.344
X16.85Y54.344
X16.85Y33.344
X16.85Y15.344
X16.85Y6.344
X19.85Y54.344
X19.85Y9.344
X19.85Y6.344
X22.85Y54.344
X22.85Y48.344
X22.85Y15.344
X22.85Y6.344
X25.85Y54.344
X25.85Y6.344
X28.85Y54.344
X28.85Y51.344
X28.85Y48.344
X28.85Y45.344
X28.85Y42.344
X28.85Y39.344
X28.85Y36.344
X28.85Y33.344
X28.85Y30.344
X28.85Y21.344
X28.85Y18.344
X28.85Y15.344
X28.85Y12.344
X28.85Y6.344
X28.85Y3.344
X31.85Y33.344
X31.85Y30.344
X31.85Y27.344
X31.85Y18.344
X31.85Y15.344
X31.85Y12.344
X34.85Y51.344
X34.85Y45.344
X34.85Y39.344
X34.85Y33.344
X34.85Y30.344
X34.85Y27.344
X34.85Y18.344
X34.85Y15.344
X34.85Y12.344
X34.85Y9.344
X37.85Y54.344
X37.85Y51.344
X37.85Y48.344
X37.85Y45.344
X37.85Y39.344
X37.85Y33.344
X37.85Y30.344
X37.85Y27.344
X37.85Y18.344
X37.85Y15.344
X37.85Y12.344
X40.85Y54.344
X40.85Y51.344
X40.85Y48.344
X40.85Y45.344
X40.85Y39.344
X40.85Y33.344
X40.85Y30.344
X40.85Y27.344
X43.85Y54.344
X43.85Y51.344
X43.85Y48.344
X43.85Y45.344
X43.85Y42.344
X43.85Y39.344
X43.85Y33.344
X43.85Y30.344
X43.85Y27.344
X43.85Y3.344
X46.85Y54.344
X46.85Y51.344
X46.85Y45.344
X46.85Y42.344
X46.85Y39.344
X46.85Y30.344
X46.85Y6.344
X46.85Y3.344
X49.85Y54.344
X49.85Y51.344
X49.85Y48.344
X49.85Y45.344
X49.85Y42.344
X49.85Y39.344
X49.85Y30.344
X49.85Y27.344
X49.85Y18.344
X49.85Y15.344
X49.85Y12.344
X49.85Y9.344
X49.85Y6.344
X49.85Y3.344
X52.85Y54.344
X52.85Y48.344
X52.85Y45.344
X52.85Y39.344
X52.85Y30.344
X52.85Y18.344
X52.85Y12.344
X52.85Y6.344
X52.85Y3.344
X55.85Y54.344
X55.85Y48.344
X55.85Y45.344
X55.85Y33.344
X55.85Y30.344
X55.85Y27.344
X55.85Y18.344
X55.85Y12.344
X55.85Y6.344
X55.85Y3.344
X58.85Y54.344
X58.85Y48.344
X58.85Y45.344
X58.85Y30.344
X58.85Y24.344
X58.85Y18.344
X58.85Y12.344
X58.85Y6.344
X58.85Y3.344
X61.85Y54.344
X61.85Y51.344
X61.85Y48.344
X61.85Y45.344
X61.85Y42.344
X61.85Y39.344
X61.85Y33.344
X61.85Y30.344
X61.85Y27.344
X61.85Y24.344
X61.85Y18.344
X61.85Y15.344
X61.85Y12.344
X61.85Y9.344
X61.85Y6.344
X61.85Y3.344
X64.85Y54.344
X64.85Y45.344
X64.85Y42.344
X64.85Y39.344
X64.85Y33.344
X64.85Y30.344
X64.85Y27.344
X64.85Y24.344
X64.85Y18.344
X64.85Y15.344
X64.85Y12.344
X64.85Y9.344
X64.85Y6.344
X64.85Y3.344
X67.85Y54.344
X67.85Y45.344
X67.85Y42.344
X67.85Y39.344
X67.85Y30.344
X67.85Y27.344
X67.85Y24.344
X67.85Y18.344
X67.85Y12.344
X67.85Y6.344
X67.85Y3.344
X70.85Y54.344
X70.85Y51.344
X70.85Y48.344
X70.85Y45.344
X70.85Y42.344
X70.85Y39.344
X70.85Y36.344
X70.85Y33.344
X70.85Y6.344
X70.85Y3.344
T2
X8.121Y47.581
X8.121Y45.041
X8.121Y42.501
X8.121Y39.961
X8.121Y37.421
X8.121Y27.521
X8.121Y24.981
X8.121Y22.441
X8.121Y19.901
X8.121Y17.361
X18.281Y47.581
X18.281Y45.041
X18.281Y42.501
X18.281Y39.961
X18.281Y37.421
X18.281Y27.521
X18.281Y24.981
X18.281Y22.441
X18.281Y19.901
X18.281Y17.361
T3
X7.51Y10.91
X7.51Y3.29
X10.05Y10.91
X10.05Y3.29
X12.59Y10.91
X12.59Y3.29
X15.13Y10.91
X15.13Y3.29
X17.67Y10.91
X17.67Y3.29
X20.21Y10.91
X20.21Y3.29
X22.75Y10.91
X22.75Y3.29
X25.29Y10.91
X25.29Y3.29
T4
X4.402Y24.988
X4.402Y14.828
X4.421Y45.021
X4.421Y34.861
X4.6Y9.7
X4.6Y4.7
X22.921Y30.051
X22.921Y19.891
X23.021Y50.101
X23.021Y39.941
X36.0Y47.1
X46.16Y47.1
X53.286Y51.984
X53.286Y41.824
X56.327Y51.984
X56.327Y41.824
X58.44Y8.9
X58.46Y15.5
X59.386Y51.984
X59.386Y41.824
X68.6Y8.9
X68.62Y15.5
T5
X52.455Y8.83
X52.5Y15.5
X54.995Y8.83
X55.04Y15.5
T6
X30.95Y36.63
X30.95Y21.39
X30.969Y53.203
X33.49Y36.63
X33.49Y21.39
X33.509Y53.203
X36.03Y36.63
X36.03Y21.39
X38.57Y36.63
X38.57Y21.39
X41.11Y36.63
X41.11Y21.39
X43.65Y36.63
X43.65Y21.39
X46.19Y36.63
X46.19Y21.39
X48.73Y36.63
X48.73Y21.39
X51.27Y36.63
X51.27Y21.39
X53.81Y36.63
X53.81Y21.39
X56.35Y36.63
X56.35Y21.39
X58.89Y36.63
X58.89Y21.39
X61.43Y36.63
X61.43Y21.39
X63.97Y36.63
X63.97Y21.39
X66.51Y36.63
X66.51Y21.39
T7
X36.0Y42.6
X41.08Y42.6
X46.3Y32.47
X46.3Y27.39
X52.6Y32.47
X52.6Y27.39
X58.9Y32.47
X58.9Y27.39
T8
X31.5Y9.1
X67.2Y50.2
M30
