%TF.GenerationSoftware,KiCad,Pcbnew,8.0.4*%
%TF.CreationDate,2024-09-02T20:22:52+02:00*%
%TF.ProjectId,digital_klokke,64696769-7461-46c5-9f6b-6c6f6b6b652e,00*%
%TF.SameCoordinates,PX10c44c20PY899d7e0*%
%TF.FileFunction,Legend,Bot*%
%TF.FilePolarity,Positive*%
%FSLAX46Y46*%
G04 Gerber Fmt 4.6, Leading zero omitted, Abs format (unit mm)*
G04 Created by KiCad (PCBNEW 8.0.4) date 2024-09-02 20:22:52*
%MOMM*%
%LPD*%
G01*
G04 APERTURE LIST*
%ADD10C,0.100000*%
%ADD11C,0.150000*%
%ADD12C,0.300000*%
%ADD13C,0.400000*%
%ADD14C,0.120000*%
%ADD15C,1.000000*%
%TA.AperFunction,Profile*%
%ADD16C,0.050000*%
%TD*%
G04 APERTURE END LIST*
D10*
D11*
X18689000Y-108702200D02*
X126689000Y-108702200D01*
X126689000Y-140702200D01*
X18689000Y-140702200D01*
X18689000Y-108702200D01*
D10*
D11*
X-271300000Y134300000D02*
X128689000Y134300000D01*
X128689000Y-142702200D01*
X-271300000Y-142702200D01*
X-271300000Y134300000D01*
D10*
D11*
X-269300000Y132300000D02*
X126689000Y132300000D01*
X126689000Y-140702200D01*
X-269300000Y-140702200D01*
X-269300000Y132300000D01*
D10*
D11*
X-221300000Y132300000D02*
X-221300000Y134300000D01*
D10*
D11*
X-171300000Y132300000D02*
X-171300000Y134300000D01*
D10*
D11*
X-121300000Y132300000D02*
X-121300000Y134300000D01*
D10*
D11*
X-71300000Y132300000D02*
X-71300000Y134300000D01*
D10*
D11*
X-21300000Y132300000D02*
X-21300000Y134300000D01*
D10*
D11*
X28700000Y132300000D02*
X28700000Y134300000D01*
D10*
D11*
X78700000Y132300000D02*
X78700000Y134300000D01*
D10*
D11*
X-245210840Y132706396D02*
X-245953697Y132706396D01*
X-245582269Y132706396D02*
X-245582269Y134006396D01*
X-245582269Y134006396D02*
X-245706078Y133820681D01*
X-245706078Y133820681D02*
X-245829888Y133696872D01*
X-245829888Y133696872D02*
X-245953697Y133634967D01*
D10*
D11*
X-195953697Y133882586D02*
X-195891793Y133944491D01*
X-195891793Y133944491D02*
X-195767983Y134006396D01*
X-195767983Y134006396D02*
X-195458459Y134006396D01*
X-195458459Y134006396D02*
X-195334650Y133944491D01*
X-195334650Y133944491D02*
X-195272745Y133882586D01*
X-195272745Y133882586D02*
X-195210840Y133758777D01*
X-195210840Y133758777D02*
X-195210840Y133634967D01*
X-195210840Y133634967D02*
X-195272745Y133449253D01*
X-195272745Y133449253D02*
X-196015602Y132706396D01*
X-196015602Y132706396D02*
X-195210840Y132706396D01*
D10*
D11*
X-146015602Y134006396D02*
X-145210840Y134006396D01*
X-145210840Y134006396D02*
X-145644174Y133511158D01*
X-145644174Y133511158D02*
X-145458459Y133511158D01*
X-145458459Y133511158D02*
X-145334650Y133449253D01*
X-145334650Y133449253D02*
X-145272745Y133387348D01*
X-145272745Y133387348D02*
X-145210840Y133263539D01*
X-145210840Y133263539D02*
X-145210840Y132954015D01*
X-145210840Y132954015D02*
X-145272745Y132830205D01*
X-145272745Y132830205D02*
X-145334650Y132768300D01*
X-145334650Y132768300D02*
X-145458459Y132706396D01*
X-145458459Y132706396D02*
X-145829888Y132706396D01*
X-145829888Y132706396D02*
X-145953697Y132768300D01*
X-145953697Y132768300D02*
X-146015602Y132830205D01*
D10*
D11*
X-95334650Y133573062D02*
X-95334650Y132706396D01*
X-95644174Y134068300D02*
X-95953697Y133139729D01*
X-95953697Y133139729D02*
X-95148936Y133139729D01*
D10*
D11*
X-45272745Y134006396D02*
X-45891793Y134006396D01*
X-45891793Y134006396D02*
X-45953697Y133387348D01*
X-45953697Y133387348D02*
X-45891793Y133449253D01*
X-45891793Y133449253D02*
X-45767983Y133511158D01*
X-45767983Y133511158D02*
X-45458459Y133511158D01*
X-45458459Y133511158D02*
X-45334650Y133449253D01*
X-45334650Y133449253D02*
X-45272745Y133387348D01*
X-45272745Y133387348D02*
X-45210840Y133263539D01*
X-45210840Y133263539D02*
X-45210840Y132954015D01*
X-45210840Y132954015D02*
X-45272745Y132830205D01*
X-45272745Y132830205D02*
X-45334650Y132768300D01*
X-45334650Y132768300D02*
X-45458459Y132706396D01*
X-45458459Y132706396D02*
X-45767983Y132706396D01*
X-45767983Y132706396D02*
X-45891793Y132768300D01*
X-45891793Y132768300D02*
X-45953697Y132830205D01*
D10*
D11*
X4665350Y134006396D02*
X4417731Y134006396D01*
X4417731Y134006396D02*
X4293922Y133944491D01*
X4293922Y133944491D02*
X4232017Y133882586D01*
X4232017Y133882586D02*
X4108207Y133696872D01*
X4108207Y133696872D02*
X4046303Y133449253D01*
X4046303Y133449253D02*
X4046303Y132954015D01*
X4046303Y132954015D02*
X4108207Y132830205D01*
X4108207Y132830205D02*
X4170112Y132768300D01*
X4170112Y132768300D02*
X4293922Y132706396D01*
X4293922Y132706396D02*
X4541541Y132706396D01*
X4541541Y132706396D02*
X4665350Y132768300D01*
X4665350Y132768300D02*
X4727255Y132830205D01*
X4727255Y132830205D02*
X4789160Y132954015D01*
X4789160Y132954015D02*
X4789160Y133263539D01*
X4789160Y133263539D02*
X4727255Y133387348D01*
X4727255Y133387348D02*
X4665350Y133449253D01*
X4665350Y133449253D02*
X4541541Y133511158D01*
X4541541Y133511158D02*
X4293922Y133511158D01*
X4293922Y133511158D02*
X4170112Y133449253D01*
X4170112Y133449253D02*
X4108207Y133387348D01*
X4108207Y133387348D02*
X4046303Y133263539D01*
D10*
D11*
X53984398Y134006396D02*
X54851064Y134006396D01*
X54851064Y134006396D02*
X54293922Y132706396D01*
D10*
D11*
X104293922Y133449253D02*
X104170112Y133511158D01*
X104170112Y133511158D02*
X104108207Y133573062D01*
X104108207Y133573062D02*
X104046303Y133696872D01*
X104046303Y133696872D02*
X104046303Y133758777D01*
X104046303Y133758777D02*
X104108207Y133882586D01*
X104108207Y133882586D02*
X104170112Y133944491D01*
X104170112Y133944491D02*
X104293922Y134006396D01*
X104293922Y134006396D02*
X104541541Y134006396D01*
X104541541Y134006396D02*
X104665350Y133944491D01*
X104665350Y133944491D02*
X104727255Y133882586D01*
X104727255Y133882586D02*
X104789160Y133758777D01*
X104789160Y133758777D02*
X104789160Y133696872D01*
X104789160Y133696872D02*
X104727255Y133573062D01*
X104727255Y133573062D02*
X104665350Y133511158D01*
X104665350Y133511158D02*
X104541541Y133449253D01*
X104541541Y133449253D02*
X104293922Y133449253D01*
X104293922Y133449253D02*
X104170112Y133387348D01*
X104170112Y133387348D02*
X104108207Y133325443D01*
X104108207Y133325443D02*
X104046303Y133201634D01*
X104046303Y133201634D02*
X104046303Y132954015D01*
X104046303Y132954015D02*
X104108207Y132830205D01*
X104108207Y132830205D02*
X104170112Y132768300D01*
X104170112Y132768300D02*
X104293922Y132706396D01*
X104293922Y132706396D02*
X104541541Y132706396D01*
X104541541Y132706396D02*
X104665350Y132768300D01*
X104665350Y132768300D02*
X104727255Y132830205D01*
X104727255Y132830205D02*
X104789160Y132954015D01*
X104789160Y132954015D02*
X104789160Y133201634D01*
X104789160Y133201634D02*
X104727255Y133325443D01*
X104727255Y133325443D02*
X104665350Y133387348D01*
X104665350Y133387348D02*
X104541541Y133449253D01*
D10*
D11*
X-221300000Y-140702200D02*
X-221300000Y-142702200D01*
D10*
D11*
X-171300000Y-140702200D02*
X-171300000Y-142702200D01*
D10*
D11*
X-121300000Y-140702200D02*
X-121300000Y-142702200D01*
D10*
D11*
X-71300000Y-140702200D02*
X-71300000Y-142702200D01*
D10*
D11*
X-21300000Y-140702200D02*
X-21300000Y-142702200D01*
D10*
D11*
X28700000Y-140702200D02*
X28700000Y-142702200D01*
D10*
D11*
X78700000Y-140702200D02*
X78700000Y-142702200D01*
D10*
D11*
X-245210840Y-142295804D02*
X-245953697Y-142295804D01*
X-245582269Y-142295804D02*
X-245582269Y-140995804D01*
X-245582269Y-140995804D02*
X-245706078Y-141181519D01*
X-245706078Y-141181519D02*
X-245829888Y-141305328D01*
X-245829888Y-141305328D02*
X-245953697Y-141367233D01*
D10*
D11*
X-195953697Y-141119614D02*
X-195891793Y-141057709D01*
X-195891793Y-141057709D02*
X-195767983Y-140995804D01*
X-195767983Y-140995804D02*
X-195458459Y-140995804D01*
X-195458459Y-140995804D02*
X-195334650Y-141057709D01*
X-195334650Y-141057709D02*
X-195272745Y-141119614D01*
X-195272745Y-141119614D02*
X-195210840Y-141243423D01*
X-195210840Y-141243423D02*
X-195210840Y-141367233D01*
X-195210840Y-141367233D02*
X-195272745Y-141552947D01*
X-195272745Y-141552947D02*
X-196015602Y-142295804D01*
X-196015602Y-142295804D02*
X-195210840Y-142295804D01*
D10*
D11*
X-146015602Y-140995804D02*
X-145210840Y-140995804D01*
X-145210840Y-140995804D02*
X-145644174Y-141491042D01*
X-145644174Y-141491042D02*
X-145458459Y-141491042D01*
X-145458459Y-141491042D02*
X-145334650Y-141552947D01*
X-145334650Y-141552947D02*
X-145272745Y-141614852D01*
X-145272745Y-141614852D02*
X-145210840Y-141738661D01*
X-145210840Y-141738661D02*
X-145210840Y-142048185D01*
X-145210840Y-142048185D02*
X-145272745Y-142171995D01*
X-145272745Y-142171995D02*
X-145334650Y-142233900D01*
X-145334650Y-142233900D02*
X-145458459Y-142295804D01*
X-145458459Y-142295804D02*
X-145829888Y-142295804D01*
X-145829888Y-142295804D02*
X-145953697Y-142233900D01*
X-145953697Y-142233900D02*
X-146015602Y-142171995D01*
D10*
D11*
X-95334650Y-141429138D02*
X-95334650Y-142295804D01*
X-95644174Y-140933900D02*
X-95953697Y-141862471D01*
X-95953697Y-141862471D02*
X-95148936Y-141862471D01*
D10*
D11*
X-45272745Y-140995804D02*
X-45891793Y-140995804D01*
X-45891793Y-140995804D02*
X-45953697Y-141614852D01*
X-45953697Y-141614852D02*
X-45891793Y-141552947D01*
X-45891793Y-141552947D02*
X-45767983Y-141491042D01*
X-45767983Y-141491042D02*
X-45458459Y-141491042D01*
X-45458459Y-141491042D02*
X-45334650Y-141552947D01*
X-45334650Y-141552947D02*
X-45272745Y-141614852D01*
X-45272745Y-141614852D02*
X-45210840Y-141738661D01*
X-45210840Y-141738661D02*
X-45210840Y-142048185D01*
X-45210840Y-142048185D02*
X-45272745Y-142171995D01*
X-45272745Y-142171995D02*
X-45334650Y-142233900D01*
X-45334650Y-142233900D02*
X-45458459Y-142295804D01*
X-45458459Y-142295804D02*
X-45767983Y-142295804D01*
X-45767983Y-142295804D02*
X-45891793Y-142233900D01*
X-45891793Y-142233900D02*
X-45953697Y-142171995D01*
D10*
D11*
X4665350Y-140995804D02*
X4417731Y-140995804D01*
X4417731Y-140995804D02*
X4293922Y-141057709D01*
X4293922Y-141057709D02*
X4232017Y-141119614D01*
X4232017Y-141119614D02*
X4108207Y-141305328D01*
X4108207Y-141305328D02*
X4046303Y-141552947D01*
X4046303Y-141552947D02*
X4046303Y-142048185D01*
X4046303Y-142048185D02*
X4108207Y-142171995D01*
X4108207Y-142171995D02*
X4170112Y-142233900D01*
X4170112Y-142233900D02*
X4293922Y-142295804D01*
X4293922Y-142295804D02*
X4541541Y-142295804D01*
X4541541Y-142295804D02*
X4665350Y-142233900D01*
X4665350Y-142233900D02*
X4727255Y-142171995D01*
X4727255Y-142171995D02*
X4789160Y-142048185D01*
X4789160Y-142048185D02*
X4789160Y-141738661D01*
X4789160Y-141738661D02*
X4727255Y-141614852D01*
X4727255Y-141614852D02*
X4665350Y-141552947D01*
X4665350Y-141552947D02*
X4541541Y-141491042D01*
X4541541Y-141491042D02*
X4293922Y-141491042D01*
X4293922Y-141491042D02*
X4170112Y-141552947D01*
X4170112Y-141552947D02*
X4108207Y-141614852D01*
X4108207Y-141614852D02*
X4046303Y-141738661D01*
D10*
D11*
X53984398Y-140995804D02*
X54851064Y-140995804D01*
X54851064Y-140995804D02*
X54293922Y-142295804D01*
D10*
D11*
X104293922Y-141552947D02*
X104170112Y-141491042D01*
X104170112Y-141491042D02*
X104108207Y-141429138D01*
X104108207Y-141429138D02*
X104046303Y-141305328D01*
X104046303Y-141305328D02*
X104046303Y-141243423D01*
X104046303Y-141243423D02*
X104108207Y-141119614D01*
X104108207Y-141119614D02*
X104170112Y-141057709D01*
X104170112Y-141057709D02*
X104293922Y-140995804D01*
X104293922Y-140995804D02*
X104541541Y-140995804D01*
X104541541Y-140995804D02*
X104665350Y-141057709D01*
X104665350Y-141057709D02*
X104727255Y-141119614D01*
X104727255Y-141119614D02*
X104789160Y-141243423D01*
X104789160Y-141243423D02*
X104789160Y-141305328D01*
X104789160Y-141305328D02*
X104727255Y-141429138D01*
X104727255Y-141429138D02*
X104665350Y-141491042D01*
X104665350Y-141491042D02*
X104541541Y-141552947D01*
X104541541Y-141552947D02*
X104293922Y-141552947D01*
X104293922Y-141552947D02*
X104170112Y-141614852D01*
X104170112Y-141614852D02*
X104108207Y-141676757D01*
X104108207Y-141676757D02*
X104046303Y-141800566D01*
X104046303Y-141800566D02*
X104046303Y-142048185D01*
X104046303Y-142048185D02*
X104108207Y-142171995D01*
X104108207Y-142171995D02*
X104170112Y-142233900D01*
X104170112Y-142233900D02*
X104293922Y-142295804D01*
X104293922Y-142295804D02*
X104541541Y-142295804D01*
X104541541Y-142295804D02*
X104665350Y-142233900D01*
X104665350Y-142233900D02*
X104727255Y-142171995D01*
X104727255Y-142171995D02*
X104789160Y-142048185D01*
X104789160Y-142048185D02*
X104789160Y-141800566D01*
X104789160Y-141800566D02*
X104727255Y-141676757D01*
X104727255Y-141676757D02*
X104665350Y-141614852D01*
X104665350Y-141614852D02*
X104541541Y-141552947D01*
D10*
D11*
X-271300000Y84300000D02*
X-269300000Y84300000D01*
D10*
D11*
X-271300000Y34300000D02*
X-269300000Y34300000D01*
D10*
D11*
X-271300000Y-15700000D02*
X-269300000Y-15700000D01*
D10*
D11*
X-271300000Y-65700000D02*
X-269300000Y-65700000D01*
D10*
D11*
X-271300000Y-115700000D02*
X-269300000Y-115700000D01*
D10*
D11*
X-270609524Y109077824D02*
X-269990477Y109077824D01*
X-270733334Y108706396D02*
X-270300001Y110006396D01*
X-270300001Y110006396D02*
X-269866667Y108706396D01*
D10*
D11*
X-270207143Y59387348D02*
X-270021429Y59325443D01*
X-270021429Y59325443D02*
X-269959524Y59263539D01*
X-269959524Y59263539D02*
X-269897620Y59139729D01*
X-269897620Y59139729D02*
X-269897620Y58954015D01*
X-269897620Y58954015D02*
X-269959524Y58830205D01*
X-269959524Y58830205D02*
X-270021429Y58768300D01*
X-270021429Y58768300D02*
X-270145239Y58706396D01*
X-270145239Y58706396D02*
X-270640477Y58706396D01*
X-270640477Y58706396D02*
X-270640477Y60006396D01*
X-270640477Y60006396D02*
X-270207143Y60006396D01*
X-270207143Y60006396D02*
X-270083334Y59944491D01*
X-270083334Y59944491D02*
X-270021429Y59882586D01*
X-270021429Y59882586D02*
X-269959524Y59758777D01*
X-269959524Y59758777D02*
X-269959524Y59634967D01*
X-269959524Y59634967D02*
X-270021429Y59511158D01*
X-270021429Y59511158D02*
X-270083334Y59449253D01*
X-270083334Y59449253D02*
X-270207143Y59387348D01*
X-270207143Y59387348D02*
X-270640477Y59387348D01*
D10*
D11*
X-269897620Y8830205D02*
X-269959524Y8768300D01*
X-269959524Y8768300D02*
X-270145239Y8706396D01*
X-270145239Y8706396D02*
X-270269048Y8706396D01*
X-270269048Y8706396D02*
X-270454762Y8768300D01*
X-270454762Y8768300D02*
X-270578572Y8892110D01*
X-270578572Y8892110D02*
X-270640477Y9015920D01*
X-270640477Y9015920D02*
X-270702381Y9263539D01*
X-270702381Y9263539D02*
X-270702381Y9449253D01*
X-270702381Y9449253D02*
X-270640477Y9696872D01*
X-270640477Y9696872D02*
X-270578572Y9820681D01*
X-270578572Y9820681D02*
X-270454762Y9944491D01*
X-270454762Y9944491D02*
X-270269048Y10006396D01*
X-270269048Y10006396D02*
X-270145239Y10006396D01*
X-270145239Y10006396D02*
X-269959524Y9944491D01*
X-269959524Y9944491D02*
X-269897620Y9882586D01*
D10*
D11*
X-270640477Y-41293604D02*
X-270640477Y-39993604D01*
X-270640477Y-39993604D02*
X-270330953Y-39993604D01*
X-270330953Y-39993604D02*
X-270145239Y-40055509D01*
X-270145239Y-40055509D02*
X-270021429Y-40179319D01*
X-270021429Y-40179319D02*
X-269959524Y-40303128D01*
X-269959524Y-40303128D02*
X-269897620Y-40550747D01*
X-269897620Y-40550747D02*
X-269897620Y-40736461D01*
X-269897620Y-40736461D02*
X-269959524Y-40984080D01*
X-269959524Y-40984080D02*
X-270021429Y-41107890D01*
X-270021429Y-41107890D02*
X-270145239Y-41231700D01*
X-270145239Y-41231700D02*
X-270330953Y-41293604D01*
X-270330953Y-41293604D02*
X-270640477Y-41293604D01*
D10*
D11*
X-270578572Y-90612652D02*
X-270145238Y-90612652D01*
X-269959524Y-91293604D02*
X-270578572Y-91293604D01*
X-270578572Y-91293604D02*
X-270578572Y-89993604D01*
X-270578572Y-89993604D02*
X-269959524Y-89993604D01*
D10*
D11*
X-270114286Y-140612652D02*
X-270547620Y-140612652D01*
X-270547620Y-141293604D02*
X-270547620Y-139993604D01*
X-270547620Y-139993604D02*
X-269928572Y-139993604D01*
D10*
D11*
X128689000Y84300000D02*
X126689000Y84300000D01*
D10*
D11*
X128689000Y34300000D02*
X126689000Y34300000D01*
D10*
D11*
X128689000Y-15700000D02*
X126689000Y-15700000D01*
D10*
D11*
X128689000Y-65700000D02*
X126689000Y-65700000D01*
D10*
D11*
X128689000Y-115700000D02*
X126689000Y-115700000D01*
D10*
D11*
X127379476Y109077824D02*
X127998523Y109077824D01*
X127255666Y108706396D02*
X127688999Y110006396D01*
X127688999Y110006396D02*
X128122333Y108706396D01*
D10*
D11*
X127781857Y59387348D02*
X127967571Y59325443D01*
X127967571Y59325443D02*
X128029476Y59263539D01*
X128029476Y59263539D02*
X128091380Y59139729D01*
X128091380Y59139729D02*
X128091380Y58954015D01*
X128091380Y58954015D02*
X128029476Y58830205D01*
X128029476Y58830205D02*
X127967571Y58768300D01*
X127967571Y58768300D02*
X127843761Y58706396D01*
X127843761Y58706396D02*
X127348523Y58706396D01*
X127348523Y58706396D02*
X127348523Y60006396D01*
X127348523Y60006396D02*
X127781857Y60006396D01*
X127781857Y60006396D02*
X127905666Y59944491D01*
X127905666Y59944491D02*
X127967571Y59882586D01*
X127967571Y59882586D02*
X128029476Y59758777D01*
X128029476Y59758777D02*
X128029476Y59634967D01*
X128029476Y59634967D02*
X127967571Y59511158D01*
X127967571Y59511158D02*
X127905666Y59449253D01*
X127905666Y59449253D02*
X127781857Y59387348D01*
X127781857Y59387348D02*
X127348523Y59387348D01*
D10*
D11*
X128091380Y8830205D02*
X128029476Y8768300D01*
X128029476Y8768300D02*
X127843761Y8706396D01*
X127843761Y8706396D02*
X127719952Y8706396D01*
X127719952Y8706396D02*
X127534238Y8768300D01*
X127534238Y8768300D02*
X127410428Y8892110D01*
X127410428Y8892110D02*
X127348523Y9015920D01*
X127348523Y9015920D02*
X127286619Y9263539D01*
X127286619Y9263539D02*
X127286619Y9449253D01*
X127286619Y9449253D02*
X127348523Y9696872D01*
X127348523Y9696872D02*
X127410428Y9820681D01*
X127410428Y9820681D02*
X127534238Y9944491D01*
X127534238Y9944491D02*
X127719952Y10006396D01*
X127719952Y10006396D02*
X127843761Y10006396D01*
X127843761Y10006396D02*
X128029476Y9944491D01*
X128029476Y9944491D02*
X128091380Y9882586D01*
D10*
D11*
X127348523Y-41293604D02*
X127348523Y-39993604D01*
X127348523Y-39993604D02*
X127658047Y-39993604D01*
X127658047Y-39993604D02*
X127843761Y-40055509D01*
X127843761Y-40055509D02*
X127967571Y-40179319D01*
X127967571Y-40179319D02*
X128029476Y-40303128D01*
X128029476Y-40303128D02*
X128091380Y-40550747D01*
X128091380Y-40550747D02*
X128091380Y-40736461D01*
X128091380Y-40736461D02*
X128029476Y-40984080D01*
X128029476Y-40984080D02*
X127967571Y-41107890D01*
X127967571Y-41107890D02*
X127843761Y-41231700D01*
X127843761Y-41231700D02*
X127658047Y-41293604D01*
X127658047Y-41293604D02*
X127348523Y-41293604D01*
D10*
D11*
X127410428Y-90612652D02*
X127843762Y-90612652D01*
X128029476Y-91293604D02*
X127410428Y-91293604D01*
X127410428Y-91293604D02*
X127410428Y-89993604D01*
X127410428Y-89993604D02*
X128029476Y-89993604D01*
D10*
D11*
X127874714Y-140612652D02*
X127441380Y-140612652D01*
X127441380Y-141293604D02*
X127441380Y-139993604D01*
X127441380Y-139993604D02*
X128060428Y-139993604D01*
D10*
D11*
X42144826Y-136488328D02*
X42144826Y-134988328D01*
X42144826Y-134988328D02*
X42501969Y-134988328D01*
X42501969Y-134988328D02*
X42716255Y-135059757D01*
X42716255Y-135059757D02*
X42859112Y-135202614D01*
X42859112Y-135202614D02*
X42930541Y-135345471D01*
X42930541Y-135345471D02*
X43001969Y-135631185D01*
X43001969Y-135631185D02*
X43001969Y-135845471D01*
X43001969Y-135845471D02*
X42930541Y-136131185D01*
X42930541Y-136131185D02*
X42859112Y-136274042D01*
X42859112Y-136274042D02*
X42716255Y-136416900D01*
X42716255Y-136416900D02*
X42501969Y-136488328D01*
X42501969Y-136488328D02*
X42144826Y-136488328D01*
X44287684Y-136488328D02*
X44287684Y-135702614D01*
X44287684Y-135702614D02*
X44216255Y-135559757D01*
X44216255Y-135559757D02*
X44073398Y-135488328D01*
X44073398Y-135488328D02*
X43787684Y-135488328D01*
X43787684Y-135488328D02*
X43644826Y-135559757D01*
X44287684Y-136416900D02*
X44144826Y-136488328D01*
X44144826Y-136488328D02*
X43787684Y-136488328D01*
X43787684Y-136488328D02*
X43644826Y-136416900D01*
X43644826Y-136416900D02*
X43573398Y-136274042D01*
X43573398Y-136274042D02*
X43573398Y-136131185D01*
X43573398Y-136131185D02*
X43644826Y-135988328D01*
X43644826Y-135988328D02*
X43787684Y-135916900D01*
X43787684Y-135916900D02*
X44144826Y-135916900D01*
X44144826Y-135916900D02*
X44287684Y-135845471D01*
X44787684Y-135488328D02*
X45359112Y-135488328D01*
X45001969Y-134988328D02*
X45001969Y-136274042D01*
X45001969Y-136274042D02*
X45073398Y-136416900D01*
X45073398Y-136416900D02*
X45216255Y-136488328D01*
X45216255Y-136488328D02*
X45359112Y-136488328D01*
X46430541Y-136416900D02*
X46287684Y-136488328D01*
X46287684Y-136488328D02*
X46001970Y-136488328D01*
X46001970Y-136488328D02*
X45859112Y-136416900D01*
X45859112Y-136416900D02*
X45787684Y-136274042D01*
X45787684Y-136274042D02*
X45787684Y-135702614D01*
X45787684Y-135702614D02*
X45859112Y-135559757D01*
X45859112Y-135559757D02*
X46001970Y-135488328D01*
X46001970Y-135488328D02*
X46287684Y-135488328D01*
X46287684Y-135488328D02*
X46430541Y-135559757D01*
X46430541Y-135559757D02*
X46501970Y-135702614D01*
X46501970Y-135702614D02*
X46501970Y-135845471D01*
X46501970Y-135845471D02*
X45787684Y-135988328D01*
X47144826Y-136345471D02*
X47216255Y-136416900D01*
X47216255Y-136416900D02*
X47144826Y-136488328D01*
X47144826Y-136488328D02*
X47073398Y-136416900D01*
X47073398Y-136416900D02*
X47144826Y-136345471D01*
X47144826Y-136345471D02*
X47144826Y-136488328D01*
X47144826Y-135559757D02*
X47216255Y-135631185D01*
X47216255Y-135631185D02*
X47144826Y-135702614D01*
X47144826Y-135702614D02*
X47073398Y-135631185D01*
X47073398Y-135631185D02*
X47144826Y-135559757D01*
X47144826Y-135559757D02*
X47144826Y-135702614D01*
X48930541Y-135131185D02*
X49001969Y-135059757D01*
X49001969Y-135059757D02*
X49144827Y-134988328D01*
X49144827Y-134988328D02*
X49501969Y-134988328D01*
X49501969Y-134988328D02*
X49644827Y-135059757D01*
X49644827Y-135059757D02*
X49716255Y-135131185D01*
X49716255Y-135131185D02*
X49787684Y-135274042D01*
X49787684Y-135274042D02*
X49787684Y-135416900D01*
X49787684Y-135416900D02*
X49716255Y-135631185D01*
X49716255Y-135631185D02*
X48859112Y-136488328D01*
X48859112Y-136488328D02*
X49787684Y-136488328D01*
X50716255Y-134988328D02*
X50859112Y-134988328D01*
X50859112Y-134988328D02*
X51001969Y-135059757D01*
X51001969Y-135059757D02*
X51073398Y-135131185D01*
X51073398Y-135131185D02*
X51144826Y-135274042D01*
X51144826Y-135274042D02*
X51216255Y-135559757D01*
X51216255Y-135559757D02*
X51216255Y-135916900D01*
X51216255Y-135916900D02*
X51144826Y-136202614D01*
X51144826Y-136202614D02*
X51073398Y-136345471D01*
X51073398Y-136345471D02*
X51001969Y-136416900D01*
X51001969Y-136416900D02*
X50859112Y-136488328D01*
X50859112Y-136488328D02*
X50716255Y-136488328D01*
X50716255Y-136488328D02*
X50573398Y-136416900D01*
X50573398Y-136416900D02*
X50501969Y-136345471D01*
X50501969Y-136345471D02*
X50430540Y-136202614D01*
X50430540Y-136202614D02*
X50359112Y-135916900D01*
X50359112Y-135916900D02*
X50359112Y-135559757D01*
X50359112Y-135559757D02*
X50430540Y-135274042D01*
X50430540Y-135274042D02*
X50501969Y-135131185D01*
X50501969Y-135131185D02*
X50573398Y-135059757D01*
X50573398Y-135059757D02*
X50716255Y-134988328D01*
X51787683Y-135131185D02*
X51859111Y-135059757D01*
X51859111Y-135059757D02*
X52001969Y-134988328D01*
X52001969Y-134988328D02*
X52359111Y-134988328D01*
X52359111Y-134988328D02*
X52501969Y-135059757D01*
X52501969Y-135059757D02*
X52573397Y-135131185D01*
X52573397Y-135131185D02*
X52644826Y-135274042D01*
X52644826Y-135274042D02*
X52644826Y-135416900D01*
X52644826Y-135416900D02*
X52573397Y-135631185D01*
X52573397Y-135631185D02*
X51716254Y-136488328D01*
X51716254Y-136488328D02*
X52644826Y-136488328D01*
X53930540Y-135488328D02*
X53930540Y-136488328D01*
X53573397Y-134916900D02*
X53216254Y-135988328D01*
X53216254Y-135988328D02*
X54144825Y-135988328D01*
X54716253Y-135916900D02*
X55859111Y-135916900D01*
X56859111Y-134988328D02*
X57001968Y-134988328D01*
X57001968Y-134988328D02*
X57144825Y-135059757D01*
X57144825Y-135059757D02*
X57216254Y-135131185D01*
X57216254Y-135131185D02*
X57287682Y-135274042D01*
X57287682Y-135274042D02*
X57359111Y-135559757D01*
X57359111Y-135559757D02*
X57359111Y-135916900D01*
X57359111Y-135916900D02*
X57287682Y-136202614D01*
X57287682Y-136202614D02*
X57216254Y-136345471D01*
X57216254Y-136345471D02*
X57144825Y-136416900D01*
X57144825Y-136416900D02*
X57001968Y-136488328D01*
X57001968Y-136488328D02*
X56859111Y-136488328D01*
X56859111Y-136488328D02*
X56716254Y-136416900D01*
X56716254Y-136416900D02*
X56644825Y-136345471D01*
X56644825Y-136345471D02*
X56573396Y-136202614D01*
X56573396Y-136202614D02*
X56501968Y-135916900D01*
X56501968Y-135916900D02*
X56501968Y-135559757D01*
X56501968Y-135559757D02*
X56573396Y-135274042D01*
X56573396Y-135274042D02*
X56644825Y-135131185D01*
X56644825Y-135131185D02*
X56716254Y-135059757D01*
X56716254Y-135059757D02*
X56859111Y-134988328D01*
X58073396Y-136488328D02*
X58359110Y-136488328D01*
X58359110Y-136488328D02*
X58501967Y-136416900D01*
X58501967Y-136416900D02*
X58573396Y-136345471D01*
X58573396Y-136345471D02*
X58716253Y-136131185D01*
X58716253Y-136131185D02*
X58787682Y-135845471D01*
X58787682Y-135845471D02*
X58787682Y-135274042D01*
X58787682Y-135274042D02*
X58716253Y-135131185D01*
X58716253Y-135131185D02*
X58644825Y-135059757D01*
X58644825Y-135059757D02*
X58501967Y-134988328D01*
X58501967Y-134988328D02*
X58216253Y-134988328D01*
X58216253Y-134988328D02*
X58073396Y-135059757D01*
X58073396Y-135059757D02*
X58001967Y-135131185D01*
X58001967Y-135131185D02*
X57930539Y-135274042D01*
X57930539Y-135274042D02*
X57930539Y-135631185D01*
X57930539Y-135631185D02*
X58001967Y-135774042D01*
X58001967Y-135774042D02*
X58073396Y-135845471D01*
X58073396Y-135845471D02*
X58216253Y-135916900D01*
X58216253Y-135916900D02*
X58501967Y-135916900D01*
X58501967Y-135916900D02*
X58644825Y-135845471D01*
X58644825Y-135845471D02*
X58716253Y-135774042D01*
X58716253Y-135774042D02*
X58787682Y-135631185D01*
X59430538Y-135916900D02*
X60573396Y-135916900D01*
X61573396Y-134988328D02*
X61716253Y-134988328D01*
X61716253Y-134988328D02*
X61859110Y-135059757D01*
X61859110Y-135059757D02*
X61930539Y-135131185D01*
X61930539Y-135131185D02*
X62001967Y-135274042D01*
X62001967Y-135274042D02*
X62073396Y-135559757D01*
X62073396Y-135559757D02*
X62073396Y-135916900D01*
X62073396Y-135916900D02*
X62001967Y-136202614D01*
X62001967Y-136202614D02*
X61930539Y-136345471D01*
X61930539Y-136345471D02*
X61859110Y-136416900D01*
X61859110Y-136416900D02*
X61716253Y-136488328D01*
X61716253Y-136488328D02*
X61573396Y-136488328D01*
X61573396Y-136488328D02*
X61430539Y-136416900D01*
X61430539Y-136416900D02*
X61359110Y-136345471D01*
X61359110Y-136345471D02*
X61287681Y-136202614D01*
X61287681Y-136202614D02*
X61216253Y-135916900D01*
X61216253Y-135916900D02*
X61216253Y-135559757D01*
X61216253Y-135559757D02*
X61287681Y-135274042D01*
X61287681Y-135274042D02*
X61359110Y-135131185D01*
X61359110Y-135131185D02*
X61430539Y-135059757D01*
X61430539Y-135059757D02*
X61573396Y-134988328D01*
X62644824Y-135131185D02*
X62716252Y-135059757D01*
X62716252Y-135059757D02*
X62859110Y-134988328D01*
X62859110Y-134988328D02*
X63216252Y-134988328D01*
X63216252Y-134988328D02*
X63359110Y-135059757D01*
X63359110Y-135059757D02*
X63430538Y-135131185D01*
X63430538Y-135131185D02*
X63501967Y-135274042D01*
X63501967Y-135274042D02*
X63501967Y-135416900D01*
X63501967Y-135416900D02*
X63430538Y-135631185D01*
X63430538Y-135631185D02*
X62573395Y-136488328D01*
X62573395Y-136488328D02*
X63501967Y-136488328D01*
D10*
D11*
X18689000Y-137202200D02*
X126689000Y-137202200D01*
D10*
D11*
X20144826Y-139288328D02*
X20144826Y-137788328D01*
X21001969Y-139288328D02*
X20359112Y-138431185D01*
X21001969Y-137788328D02*
X20144826Y-138645471D01*
X21644826Y-139288328D02*
X21644826Y-138288328D01*
X21644826Y-137788328D02*
X21573398Y-137859757D01*
X21573398Y-137859757D02*
X21644826Y-137931185D01*
X21644826Y-137931185D02*
X21716255Y-137859757D01*
X21716255Y-137859757D02*
X21644826Y-137788328D01*
X21644826Y-137788328D02*
X21644826Y-137931185D01*
X23216255Y-139145471D02*
X23144827Y-139216900D01*
X23144827Y-139216900D02*
X22930541Y-139288328D01*
X22930541Y-139288328D02*
X22787684Y-139288328D01*
X22787684Y-139288328D02*
X22573398Y-139216900D01*
X22573398Y-139216900D02*
X22430541Y-139074042D01*
X22430541Y-139074042D02*
X22359112Y-138931185D01*
X22359112Y-138931185D02*
X22287684Y-138645471D01*
X22287684Y-138645471D02*
X22287684Y-138431185D01*
X22287684Y-138431185D02*
X22359112Y-138145471D01*
X22359112Y-138145471D02*
X22430541Y-138002614D01*
X22430541Y-138002614D02*
X22573398Y-137859757D01*
X22573398Y-137859757D02*
X22787684Y-137788328D01*
X22787684Y-137788328D02*
X22930541Y-137788328D01*
X22930541Y-137788328D02*
X23144827Y-137859757D01*
X23144827Y-137859757D02*
X23216255Y-137931185D01*
X24501970Y-139288328D02*
X24501970Y-138502614D01*
X24501970Y-138502614D02*
X24430541Y-138359757D01*
X24430541Y-138359757D02*
X24287684Y-138288328D01*
X24287684Y-138288328D02*
X24001970Y-138288328D01*
X24001970Y-138288328D02*
X23859112Y-138359757D01*
X24501970Y-139216900D02*
X24359112Y-139288328D01*
X24359112Y-139288328D02*
X24001970Y-139288328D01*
X24001970Y-139288328D02*
X23859112Y-139216900D01*
X23859112Y-139216900D02*
X23787684Y-139074042D01*
X23787684Y-139074042D02*
X23787684Y-138931185D01*
X23787684Y-138931185D02*
X23859112Y-138788328D01*
X23859112Y-138788328D02*
X24001970Y-138716900D01*
X24001970Y-138716900D02*
X24359112Y-138716900D01*
X24359112Y-138716900D02*
X24501970Y-138645471D01*
X25859113Y-139288328D02*
X25859113Y-137788328D01*
X25859113Y-139216900D02*
X25716255Y-139288328D01*
X25716255Y-139288328D02*
X25430541Y-139288328D01*
X25430541Y-139288328D02*
X25287684Y-139216900D01*
X25287684Y-139216900D02*
X25216255Y-139145471D01*
X25216255Y-139145471D02*
X25144827Y-139002614D01*
X25144827Y-139002614D02*
X25144827Y-138574042D01*
X25144827Y-138574042D02*
X25216255Y-138431185D01*
X25216255Y-138431185D02*
X25287684Y-138359757D01*
X25287684Y-138359757D02*
X25430541Y-138288328D01*
X25430541Y-138288328D02*
X25716255Y-138288328D01*
X25716255Y-138288328D02*
X25859113Y-138359757D01*
X27716255Y-138502614D02*
X28216255Y-138502614D01*
X28430541Y-139288328D02*
X27716255Y-139288328D01*
X27716255Y-139288328D02*
X27716255Y-137788328D01*
X27716255Y-137788328D02*
X28430541Y-137788328D01*
X29073398Y-139145471D02*
X29144827Y-139216900D01*
X29144827Y-139216900D02*
X29073398Y-139288328D01*
X29073398Y-139288328D02*
X29001970Y-139216900D01*
X29001970Y-139216900D02*
X29073398Y-139145471D01*
X29073398Y-139145471D02*
X29073398Y-139288328D01*
X29787684Y-139288328D02*
X29787684Y-137788328D01*
X29787684Y-137788328D02*
X30144827Y-137788328D01*
X30144827Y-137788328D02*
X30359113Y-137859757D01*
X30359113Y-137859757D02*
X30501970Y-138002614D01*
X30501970Y-138002614D02*
X30573399Y-138145471D01*
X30573399Y-138145471D02*
X30644827Y-138431185D01*
X30644827Y-138431185D02*
X30644827Y-138645471D01*
X30644827Y-138645471D02*
X30573399Y-138931185D01*
X30573399Y-138931185D02*
X30501970Y-139074042D01*
X30501970Y-139074042D02*
X30359113Y-139216900D01*
X30359113Y-139216900D02*
X30144827Y-139288328D01*
X30144827Y-139288328D02*
X29787684Y-139288328D01*
X31287684Y-139145471D02*
X31359113Y-139216900D01*
X31359113Y-139216900D02*
X31287684Y-139288328D01*
X31287684Y-139288328D02*
X31216256Y-139216900D01*
X31216256Y-139216900D02*
X31287684Y-139145471D01*
X31287684Y-139145471D02*
X31287684Y-139288328D01*
X31930542Y-138859757D02*
X32644828Y-138859757D01*
X31787685Y-139288328D02*
X32287685Y-137788328D01*
X32287685Y-137788328D02*
X32787685Y-139288328D01*
X33287684Y-139145471D02*
X33359113Y-139216900D01*
X33359113Y-139216900D02*
X33287684Y-139288328D01*
X33287684Y-139288328D02*
X33216256Y-139216900D01*
X33216256Y-139216900D02*
X33287684Y-139145471D01*
X33287684Y-139145471D02*
X33287684Y-139288328D01*
X35359113Y-138431185D02*
X35216256Y-138359757D01*
X35216256Y-138359757D02*
X35144827Y-138288328D01*
X35144827Y-138288328D02*
X35073399Y-138145471D01*
X35073399Y-138145471D02*
X35073399Y-138074042D01*
X35073399Y-138074042D02*
X35144827Y-137931185D01*
X35144827Y-137931185D02*
X35216256Y-137859757D01*
X35216256Y-137859757D02*
X35359113Y-137788328D01*
X35359113Y-137788328D02*
X35644827Y-137788328D01*
X35644827Y-137788328D02*
X35787685Y-137859757D01*
X35787685Y-137859757D02*
X35859113Y-137931185D01*
X35859113Y-137931185D02*
X35930542Y-138074042D01*
X35930542Y-138074042D02*
X35930542Y-138145471D01*
X35930542Y-138145471D02*
X35859113Y-138288328D01*
X35859113Y-138288328D02*
X35787685Y-138359757D01*
X35787685Y-138359757D02*
X35644827Y-138431185D01*
X35644827Y-138431185D02*
X35359113Y-138431185D01*
X35359113Y-138431185D02*
X35216256Y-138502614D01*
X35216256Y-138502614D02*
X35144827Y-138574042D01*
X35144827Y-138574042D02*
X35073399Y-138716900D01*
X35073399Y-138716900D02*
X35073399Y-139002614D01*
X35073399Y-139002614D02*
X35144827Y-139145471D01*
X35144827Y-139145471D02*
X35216256Y-139216900D01*
X35216256Y-139216900D02*
X35359113Y-139288328D01*
X35359113Y-139288328D02*
X35644827Y-139288328D01*
X35644827Y-139288328D02*
X35787685Y-139216900D01*
X35787685Y-139216900D02*
X35859113Y-139145471D01*
X35859113Y-139145471D02*
X35930542Y-139002614D01*
X35930542Y-139002614D02*
X35930542Y-138716900D01*
X35930542Y-138716900D02*
X35859113Y-138574042D01*
X35859113Y-138574042D02*
X35787685Y-138502614D01*
X35787685Y-138502614D02*
X35644827Y-138431185D01*
X36573398Y-139145471D02*
X36644827Y-139216900D01*
X36644827Y-139216900D02*
X36573398Y-139288328D01*
X36573398Y-139288328D02*
X36501970Y-139216900D01*
X36501970Y-139216900D02*
X36573398Y-139145471D01*
X36573398Y-139145471D02*
X36573398Y-139288328D01*
X37573399Y-137788328D02*
X37716256Y-137788328D01*
X37716256Y-137788328D02*
X37859113Y-137859757D01*
X37859113Y-137859757D02*
X37930542Y-137931185D01*
X37930542Y-137931185D02*
X38001970Y-138074042D01*
X38001970Y-138074042D02*
X38073399Y-138359757D01*
X38073399Y-138359757D02*
X38073399Y-138716900D01*
X38073399Y-138716900D02*
X38001970Y-139002614D01*
X38001970Y-139002614D02*
X37930542Y-139145471D01*
X37930542Y-139145471D02*
X37859113Y-139216900D01*
X37859113Y-139216900D02*
X37716256Y-139288328D01*
X37716256Y-139288328D02*
X37573399Y-139288328D01*
X37573399Y-139288328D02*
X37430542Y-139216900D01*
X37430542Y-139216900D02*
X37359113Y-139145471D01*
X37359113Y-139145471D02*
X37287684Y-139002614D01*
X37287684Y-139002614D02*
X37216256Y-138716900D01*
X37216256Y-138716900D02*
X37216256Y-138359757D01*
X37216256Y-138359757D02*
X37287684Y-138074042D01*
X37287684Y-138074042D02*
X37359113Y-137931185D01*
X37359113Y-137931185D02*
X37430542Y-137859757D01*
X37430542Y-137859757D02*
X37573399Y-137788328D01*
X38716255Y-139145471D02*
X38787684Y-139216900D01*
X38787684Y-139216900D02*
X38716255Y-139288328D01*
X38716255Y-139288328D02*
X38644827Y-139216900D01*
X38644827Y-139216900D02*
X38716255Y-139145471D01*
X38716255Y-139145471D02*
X38716255Y-139288328D01*
X40073399Y-138288328D02*
X40073399Y-139288328D01*
X39716256Y-137716900D02*
X39359113Y-138788328D01*
X39359113Y-138788328D02*
X40287684Y-138788328D01*
D10*
D11*
X18689000Y-134202200D02*
X126689000Y-134202200D01*
D10*
D12*
X106100653Y-136480528D02*
X105600653Y-135766242D01*
X105243510Y-136480528D02*
X105243510Y-134980528D01*
X105243510Y-134980528D02*
X105814939Y-134980528D01*
X105814939Y-134980528D02*
X105957796Y-135051957D01*
X105957796Y-135051957D02*
X106029225Y-135123385D01*
X106029225Y-135123385D02*
X106100653Y-135266242D01*
X106100653Y-135266242D02*
X106100653Y-135480528D01*
X106100653Y-135480528D02*
X106029225Y-135623385D01*
X106029225Y-135623385D02*
X105957796Y-135694814D01*
X105957796Y-135694814D02*
X105814939Y-135766242D01*
X105814939Y-135766242D02*
X105243510Y-135766242D01*
X107314939Y-136409100D02*
X107172082Y-136480528D01*
X107172082Y-136480528D02*
X106886368Y-136480528D01*
X106886368Y-136480528D02*
X106743510Y-136409100D01*
X106743510Y-136409100D02*
X106672082Y-136266242D01*
X106672082Y-136266242D02*
X106672082Y-135694814D01*
X106672082Y-135694814D02*
X106743510Y-135551957D01*
X106743510Y-135551957D02*
X106886368Y-135480528D01*
X106886368Y-135480528D02*
X107172082Y-135480528D01*
X107172082Y-135480528D02*
X107314939Y-135551957D01*
X107314939Y-135551957D02*
X107386368Y-135694814D01*
X107386368Y-135694814D02*
X107386368Y-135837671D01*
X107386368Y-135837671D02*
X106672082Y-135980528D01*
X107886367Y-135480528D02*
X108243510Y-136480528D01*
X108243510Y-136480528D02*
X108600653Y-135480528D01*
X109172081Y-136337671D02*
X109243510Y-136409100D01*
X109243510Y-136409100D02*
X109172081Y-136480528D01*
X109172081Y-136480528D02*
X109100653Y-136409100D01*
X109100653Y-136409100D02*
X109172081Y-136337671D01*
X109172081Y-136337671D02*
X109172081Y-136480528D01*
X109172081Y-135551957D02*
X109243510Y-135623385D01*
X109243510Y-135623385D02*
X109172081Y-135694814D01*
X109172081Y-135694814D02*
X109100653Y-135623385D01*
X109100653Y-135623385D02*
X109172081Y-135551957D01*
X109172081Y-135551957D02*
X109172081Y-135694814D01*
X111314939Y-134980528D02*
X111457796Y-134980528D01*
X111457796Y-134980528D02*
X111600653Y-135051957D01*
X111600653Y-135051957D02*
X111672082Y-135123385D01*
X111672082Y-135123385D02*
X111743510Y-135266242D01*
X111743510Y-135266242D02*
X111814939Y-135551957D01*
X111814939Y-135551957D02*
X111814939Y-135909100D01*
X111814939Y-135909100D02*
X111743510Y-136194814D01*
X111743510Y-136194814D02*
X111672082Y-136337671D01*
X111672082Y-136337671D02*
X111600653Y-136409100D01*
X111600653Y-136409100D02*
X111457796Y-136480528D01*
X111457796Y-136480528D02*
X111314939Y-136480528D01*
X111314939Y-136480528D02*
X111172082Y-136409100D01*
X111172082Y-136409100D02*
X111100653Y-136337671D01*
X111100653Y-136337671D02*
X111029224Y-136194814D01*
X111029224Y-136194814D02*
X110957796Y-135909100D01*
X110957796Y-135909100D02*
X110957796Y-135551957D01*
X110957796Y-135551957D02*
X111029224Y-135266242D01*
X111029224Y-135266242D02*
X111100653Y-135123385D01*
X111100653Y-135123385D02*
X111172082Y-135051957D01*
X111172082Y-135051957D02*
X111314939Y-134980528D01*
X112743510Y-134980528D02*
X112886367Y-134980528D01*
X112886367Y-134980528D02*
X113029224Y-135051957D01*
X113029224Y-135051957D02*
X113100653Y-135123385D01*
X113100653Y-135123385D02*
X113172081Y-135266242D01*
X113172081Y-135266242D02*
X113243510Y-135551957D01*
X113243510Y-135551957D02*
X113243510Y-135909100D01*
X113243510Y-135909100D02*
X113172081Y-136194814D01*
X113172081Y-136194814D02*
X113100653Y-136337671D01*
X113100653Y-136337671D02*
X113029224Y-136409100D01*
X113029224Y-136409100D02*
X112886367Y-136480528D01*
X112886367Y-136480528D02*
X112743510Y-136480528D01*
X112743510Y-136480528D02*
X112600653Y-136409100D01*
X112600653Y-136409100D02*
X112529224Y-136337671D01*
X112529224Y-136337671D02*
X112457795Y-136194814D01*
X112457795Y-136194814D02*
X112386367Y-135909100D01*
X112386367Y-135909100D02*
X112386367Y-135551957D01*
X112386367Y-135551957D02*
X112457795Y-135266242D01*
X112457795Y-135266242D02*
X112529224Y-135123385D01*
X112529224Y-135123385D02*
X112600653Y-135051957D01*
X112600653Y-135051957D02*
X112743510Y-134980528D01*
D10*
D11*
X20073398Y-136416900D02*
X20287684Y-136488328D01*
X20287684Y-136488328D02*
X20644826Y-136488328D01*
X20644826Y-136488328D02*
X20787684Y-136416900D01*
X20787684Y-136416900D02*
X20859112Y-136345471D01*
X20859112Y-136345471D02*
X20930541Y-136202614D01*
X20930541Y-136202614D02*
X20930541Y-136059757D01*
X20930541Y-136059757D02*
X20859112Y-135916900D01*
X20859112Y-135916900D02*
X20787684Y-135845471D01*
X20787684Y-135845471D02*
X20644826Y-135774042D01*
X20644826Y-135774042D02*
X20359112Y-135702614D01*
X20359112Y-135702614D02*
X20216255Y-135631185D01*
X20216255Y-135631185D02*
X20144826Y-135559757D01*
X20144826Y-135559757D02*
X20073398Y-135416900D01*
X20073398Y-135416900D02*
X20073398Y-135274042D01*
X20073398Y-135274042D02*
X20144826Y-135131185D01*
X20144826Y-135131185D02*
X20216255Y-135059757D01*
X20216255Y-135059757D02*
X20359112Y-134988328D01*
X20359112Y-134988328D02*
X20716255Y-134988328D01*
X20716255Y-134988328D02*
X20930541Y-135059757D01*
X21573397Y-136488328D02*
X21573397Y-135488328D01*
X21573397Y-134988328D02*
X21501969Y-135059757D01*
X21501969Y-135059757D02*
X21573397Y-135131185D01*
X21573397Y-135131185D02*
X21644826Y-135059757D01*
X21644826Y-135059757D02*
X21573397Y-134988328D01*
X21573397Y-134988328D02*
X21573397Y-135131185D01*
X22144826Y-135488328D02*
X22930541Y-135488328D01*
X22930541Y-135488328D02*
X22144826Y-136488328D01*
X22144826Y-136488328D02*
X22930541Y-136488328D01*
X24073398Y-136416900D02*
X23930541Y-136488328D01*
X23930541Y-136488328D02*
X23644827Y-136488328D01*
X23644827Y-136488328D02*
X23501969Y-136416900D01*
X23501969Y-136416900D02*
X23430541Y-136274042D01*
X23430541Y-136274042D02*
X23430541Y-135702614D01*
X23430541Y-135702614D02*
X23501969Y-135559757D01*
X23501969Y-135559757D02*
X23644827Y-135488328D01*
X23644827Y-135488328D02*
X23930541Y-135488328D01*
X23930541Y-135488328D02*
X24073398Y-135559757D01*
X24073398Y-135559757D02*
X24144827Y-135702614D01*
X24144827Y-135702614D02*
X24144827Y-135845471D01*
X24144827Y-135845471D02*
X23430541Y-135988328D01*
X24787683Y-136345471D02*
X24859112Y-136416900D01*
X24859112Y-136416900D02*
X24787683Y-136488328D01*
X24787683Y-136488328D02*
X24716255Y-136416900D01*
X24716255Y-136416900D02*
X24787683Y-136345471D01*
X24787683Y-136345471D02*
X24787683Y-136488328D01*
X24787683Y-135559757D02*
X24859112Y-135631185D01*
X24859112Y-135631185D02*
X24787683Y-135702614D01*
X24787683Y-135702614D02*
X24716255Y-135631185D01*
X24716255Y-135631185D02*
X24787683Y-135559757D01*
X24787683Y-135559757D02*
X24787683Y-135702614D01*
X26573398Y-136059757D02*
X27287684Y-136059757D01*
X26430541Y-136488328D02*
X26930541Y-134988328D01*
X26930541Y-134988328D02*
X27430541Y-136488328D01*
X27787683Y-134988328D02*
X28716255Y-134988328D01*
X28716255Y-134988328D02*
X28216255Y-135559757D01*
X28216255Y-135559757D02*
X28430540Y-135559757D01*
X28430540Y-135559757D02*
X28573398Y-135631185D01*
X28573398Y-135631185D02*
X28644826Y-135702614D01*
X28644826Y-135702614D02*
X28716255Y-135845471D01*
X28716255Y-135845471D02*
X28716255Y-136202614D01*
X28716255Y-136202614D02*
X28644826Y-136345471D01*
X28644826Y-136345471D02*
X28573398Y-136416900D01*
X28573398Y-136416900D02*
X28430540Y-136488328D01*
X28430540Y-136488328D02*
X28001969Y-136488328D01*
X28001969Y-136488328D02*
X27859112Y-136416900D01*
X27859112Y-136416900D02*
X27787683Y-136345471D01*
D10*
D11*
X105144826Y-139288328D02*
X105144826Y-137788328D01*
X106501970Y-139288328D02*
X106501970Y-137788328D01*
X106501970Y-139216900D02*
X106359112Y-139288328D01*
X106359112Y-139288328D02*
X106073398Y-139288328D01*
X106073398Y-139288328D02*
X105930541Y-139216900D01*
X105930541Y-139216900D02*
X105859112Y-139145471D01*
X105859112Y-139145471D02*
X105787684Y-139002614D01*
X105787684Y-139002614D02*
X105787684Y-138574042D01*
X105787684Y-138574042D02*
X105859112Y-138431185D01*
X105859112Y-138431185D02*
X105930541Y-138359757D01*
X105930541Y-138359757D02*
X106073398Y-138288328D01*
X106073398Y-138288328D02*
X106359112Y-138288328D01*
X106359112Y-138288328D02*
X106501970Y-138359757D01*
X107216255Y-139145471D02*
X107287684Y-139216900D01*
X107287684Y-139216900D02*
X107216255Y-139288328D01*
X107216255Y-139288328D02*
X107144827Y-139216900D01*
X107144827Y-139216900D02*
X107216255Y-139145471D01*
X107216255Y-139145471D02*
X107216255Y-139288328D01*
X107216255Y-138359757D02*
X107287684Y-138431185D01*
X107287684Y-138431185D02*
X107216255Y-138502614D01*
X107216255Y-138502614D02*
X107144827Y-138431185D01*
X107144827Y-138431185D02*
X107216255Y-138359757D01*
X107216255Y-138359757D02*
X107216255Y-138502614D01*
X109859113Y-139288328D02*
X109001970Y-139288328D01*
X109430541Y-139288328D02*
X109430541Y-137788328D01*
X109430541Y-137788328D02*
X109287684Y-138002614D01*
X109287684Y-138002614D02*
X109144827Y-138145471D01*
X109144827Y-138145471D02*
X109001970Y-138216900D01*
X111573398Y-137716900D02*
X110287684Y-139645471D01*
X112859113Y-139288328D02*
X112001970Y-139288328D01*
X112430541Y-139288328D02*
X112430541Y-137788328D01*
X112430541Y-137788328D02*
X112287684Y-138002614D01*
X112287684Y-138002614D02*
X112144827Y-138145471D01*
X112144827Y-138145471D02*
X112001970Y-138216900D01*
D10*
D11*
X18689000Y-130202200D02*
X126689000Y-130202200D01*
D10*
D13*
X20380728Y-130906638D02*
X21523585Y-130906638D01*
X20702157Y-132906638D02*
X20952157Y-130906638D01*
X21940252Y-132906638D02*
X22106919Y-131573304D01*
X22190252Y-130906638D02*
X22083109Y-131001876D01*
X22083109Y-131001876D02*
X22166443Y-131097114D01*
X22166443Y-131097114D02*
X22273586Y-131001876D01*
X22273586Y-131001876D02*
X22190252Y-130906638D01*
X22190252Y-130906638D02*
X22166443Y-131097114D01*
X22773586Y-131573304D02*
X23535490Y-131573304D01*
X23142633Y-130906638D02*
X22928348Y-132620923D01*
X22928348Y-132620923D02*
X22999776Y-132811400D01*
X22999776Y-132811400D02*
X23178348Y-132906638D01*
X23178348Y-132906638D02*
X23368824Y-132906638D01*
X24321205Y-132906638D02*
X24142633Y-132811400D01*
X24142633Y-132811400D02*
X24071205Y-132620923D01*
X24071205Y-132620923D02*
X24285490Y-130906638D01*
X25856919Y-132811400D02*
X25654538Y-132906638D01*
X25654538Y-132906638D02*
X25273585Y-132906638D01*
X25273585Y-132906638D02*
X25095014Y-132811400D01*
X25095014Y-132811400D02*
X25023585Y-132620923D01*
X25023585Y-132620923D02*
X25118824Y-131859019D01*
X25118824Y-131859019D02*
X25237871Y-131668542D01*
X25237871Y-131668542D02*
X25440252Y-131573304D01*
X25440252Y-131573304D02*
X25821204Y-131573304D01*
X25821204Y-131573304D02*
X25999776Y-131668542D01*
X25999776Y-131668542D02*
X26071204Y-131859019D01*
X26071204Y-131859019D02*
X26047395Y-132049495D01*
X26047395Y-132049495D02*
X25071204Y-132239971D01*
X26821205Y-132716161D02*
X26904538Y-132811400D01*
X26904538Y-132811400D02*
X26797395Y-132906638D01*
X26797395Y-132906638D02*
X26714062Y-132811400D01*
X26714062Y-132811400D02*
X26821205Y-132716161D01*
X26821205Y-132716161D02*
X26797395Y-132906638D01*
X26952157Y-131668542D02*
X27035490Y-131763780D01*
X27035490Y-131763780D02*
X26928348Y-131859019D01*
X26928348Y-131859019D02*
X26845014Y-131763780D01*
X26845014Y-131763780D02*
X26952157Y-131668542D01*
X26952157Y-131668542D02*
X26928348Y-131859019D01*
X29273586Y-132906638D02*
X29523586Y-130906638D01*
X29523586Y-130906638D02*
X29999777Y-130906638D01*
X29999777Y-130906638D02*
X30273586Y-131001876D01*
X30273586Y-131001876D02*
X30440253Y-131192352D01*
X30440253Y-131192352D02*
X30511681Y-131382828D01*
X30511681Y-131382828D02*
X30559301Y-131763780D01*
X30559301Y-131763780D02*
X30523586Y-132049495D01*
X30523586Y-132049495D02*
X30380729Y-132430447D01*
X30380729Y-132430447D02*
X30261681Y-132620923D01*
X30261681Y-132620923D02*
X30047396Y-132811400D01*
X30047396Y-132811400D02*
X29749777Y-132906638D01*
X29749777Y-132906638D02*
X29273586Y-132906638D01*
X31273586Y-132906638D02*
X31440253Y-131573304D01*
X31523586Y-130906638D02*
X31416443Y-131001876D01*
X31416443Y-131001876D02*
X31499777Y-131097114D01*
X31499777Y-131097114D02*
X31606920Y-131001876D01*
X31606920Y-131001876D02*
X31523586Y-130906638D01*
X31523586Y-130906638D02*
X31499777Y-131097114D01*
X33249777Y-131573304D02*
X33047396Y-133192352D01*
X33047396Y-133192352D02*
X32928348Y-133382828D01*
X32928348Y-133382828D02*
X32821205Y-133478066D01*
X32821205Y-133478066D02*
X32618824Y-133573304D01*
X32618824Y-133573304D02*
X32333110Y-133573304D01*
X32333110Y-133573304D02*
X32154539Y-133478066D01*
X33095015Y-132811400D02*
X32892634Y-132906638D01*
X32892634Y-132906638D02*
X32511682Y-132906638D01*
X32511682Y-132906638D02*
X32333110Y-132811400D01*
X32333110Y-132811400D02*
X32249777Y-132716161D01*
X32249777Y-132716161D02*
X32178348Y-132525685D01*
X32178348Y-132525685D02*
X32249777Y-131954257D01*
X32249777Y-131954257D02*
X32368824Y-131763780D01*
X32368824Y-131763780D02*
X32475967Y-131668542D01*
X32475967Y-131668542D02*
X32678348Y-131573304D01*
X32678348Y-131573304D02*
X33059301Y-131573304D01*
X33059301Y-131573304D02*
X33237872Y-131668542D01*
X34035491Y-132906638D02*
X34202158Y-131573304D01*
X34285491Y-130906638D02*
X34178348Y-131001876D01*
X34178348Y-131001876D02*
X34261682Y-131097114D01*
X34261682Y-131097114D02*
X34368825Y-131001876D01*
X34368825Y-131001876D02*
X34285491Y-130906638D01*
X34285491Y-130906638D02*
X34261682Y-131097114D01*
X34868825Y-131573304D02*
X35630729Y-131573304D01*
X35237872Y-130906638D02*
X35023587Y-132620923D01*
X35023587Y-132620923D02*
X35095015Y-132811400D01*
X35095015Y-132811400D02*
X35273587Y-132906638D01*
X35273587Y-132906638D02*
X35464063Y-132906638D01*
X36987872Y-132906638D02*
X37118824Y-131859019D01*
X37118824Y-131859019D02*
X37047396Y-131668542D01*
X37047396Y-131668542D02*
X36868824Y-131573304D01*
X36868824Y-131573304D02*
X36487872Y-131573304D01*
X36487872Y-131573304D02*
X36285491Y-131668542D01*
X36999777Y-132811400D02*
X36797396Y-132906638D01*
X36797396Y-132906638D02*
X36321205Y-132906638D01*
X36321205Y-132906638D02*
X36142634Y-132811400D01*
X36142634Y-132811400D02*
X36071205Y-132620923D01*
X36071205Y-132620923D02*
X36095015Y-132430447D01*
X36095015Y-132430447D02*
X36214063Y-132239971D01*
X36214063Y-132239971D02*
X36416444Y-132144733D01*
X36416444Y-132144733D02*
X36892634Y-132144733D01*
X36892634Y-132144733D02*
X37095015Y-132049495D01*
X38225968Y-132906638D02*
X38047396Y-132811400D01*
X38047396Y-132811400D02*
X37975968Y-132620923D01*
X37975968Y-132620923D02*
X38190253Y-130906638D01*
X40511682Y-132906638D02*
X40761682Y-130906638D01*
X41654539Y-132906638D02*
X40940254Y-131763780D01*
X41904539Y-130906638D02*
X40618825Y-132049495D01*
X42797397Y-132906638D02*
X42618825Y-132811400D01*
X42618825Y-132811400D02*
X42547397Y-132620923D01*
X42547397Y-132620923D02*
X42761682Y-130906638D01*
X43845016Y-132906638D02*
X43666444Y-132811400D01*
X43666444Y-132811400D02*
X43583111Y-132716161D01*
X43583111Y-132716161D02*
X43511682Y-132525685D01*
X43511682Y-132525685D02*
X43583111Y-131954257D01*
X43583111Y-131954257D02*
X43702158Y-131763780D01*
X43702158Y-131763780D02*
X43809301Y-131668542D01*
X43809301Y-131668542D02*
X44011682Y-131573304D01*
X44011682Y-131573304D02*
X44297396Y-131573304D01*
X44297396Y-131573304D02*
X44475968Y-131668542D01*
X44475968Y-131668542D02*
X44559301Y-131763780D01*
X44559301Y-131763780D02*
X44630730Y-131954257D01*
X44630730Y-131954257D02*
X44559301Y-132525685D01*
X44559301Y-132525685D02*
X44440254Y-132716161D01*
X44440254Y-132716161D02*
X44333111Y-132811400D01*
X44333111Y-132811400D02*
X44130730Y-132906638D01*
X44130730Y-132906638D02*
X43845016Y-132906638D01*
X45368825Y-132906638D02*
X45618825Y-130906638D01*
X45654540Y-132144733D02*
X46130730Y-132906638D01*
X46297397Y-131573304D02*
X45440254Y-132335209D01*
X46987873Y-132906638D02*
X47237873Y-130906638D01*
X47273588Y-132144733D02*
X47749778Y-132906638D01*
X47916445Y-131573304D02*
X47059302Y-132335209D01*
X49380731Y-132811400D02*
X49178350Y-132906638D01*
X49178350Y-132906638D02*
X48797397Y-132906638D01*
X48797397Y-132906638D02*
X48618826Y-132811400D01*
X48618826Y-132811400D02*
X48547397Y-132620923D01*
X48547397Y-132620923D02*
X48642636Y-131859019D01*
X48642636Y-131859019D02*
X48761683Y-131668542D01*
X48761683Y-131668542D02*
X48964064Y-131573304D01*
X48964064Y-131573304D02*
X49345016Y-131573304D01*
X49345016Y-131573304D02*
X49523588Y-131668542D01*
X49523588Y-131668542D02*
X49595016Y-131859019D01*
X49595016Y-131859019D02*
X49571207Y-132049495D01*
X49571207Y-132049495D02*
X48595016Y-132239971D01*
D10*
D11*
X20644826Y-128302614D02*
X20144826Y-128302614D01*
X20144826Y-129088328D02*
X20144826Y-127588328D01*
X20144826Y-127588328D02*
X20859112Y-127588328D01*
X21430540Y-129088328D02*
X21430540Y-128088328D01*
X21430540Y-127588328D02*
X21359112Y-127659757D01*
X21359112Y-127659757D02*
X21430540Y-127731185D01*
X21430540Y-127731185D02*
X21501969Y-127659757D01*
X21501969Y-127659757D02*
X21430540Y-127588328D01*
X21430540Y-127588328D02*
X21430540Y-127731185D01*
X22359112Y-129088328D02*
X22216255Y-129016900D01*
X22216255Y-129016900D02*
X22144826Y-128874042D01*
X22144826Y-128874042D02*
X22144826Y-127588328D01*
X23501969Y-129016900D02*
X23359112Y-129088328D01*
X23359112Y-129088328D02*
X23073398Y-129088328D01*
X23073398Y-129088328D02*
X22930540Y-129016900D01*
X22930540Y-129016900D02*
X22859112Y-128874042D01*
X22859112Y-128874042D02*
X22859112Y-128302614D01*
X22859112Y-128302614D02*
X22930540Y-128159757D01*
X22930540Y-128159757D02*
X23073398Y-128088328D01*
X23073398Y-128088328D02*
X23359112Y-128088328D01*
X23359112Y-128088328D02*
X23501969Y-128159757D01*
X23501969Y-128159757D02*
X23573398Y-128302614D01*
X23573398Y-128302614D02*
X23573398Y-128445471D01*
X23573398Y-128445471D02*
X22859112Y-128588328D01*
X24216254Y-128945471D02*
X24287683Y-129016900D01*
X24287683Y-129016900D02*
X24216254Y-129088328D01*
X24216254Y-129088328D02*
X24144826Y-129016900D01*
X24144826Y-129016900D02*
X24216254Y-128945471D01*
X24216254Y-128945471D02*
X24216254Y-129088328D01*
X24216254Y-128159757D02*
X24287683Y-128231185D01*
X24287683Y-128231185D02*
X24216254Y-128302614D01*
X24216254Y-128302614D02*
X24144826Y-128231185D01*
X24144826Y-128231185D02*
X24216254Y-128159757D01*
X24216254Y-128159757D02*
X24216254Y-128302614D01*
X26716255Y-129088328D02*
X26716255Y-127588328D01*
X26716255Y-129016900D02*
X26573397Y-129088328D01*
X26573397Y-129088328D02*
X26287683Y-129088328D01*
X26287683Y-129088328D02*
X26144826Y-129016900D01*
X26144826Y-129016900D02*
X26073397Y-128945471D01*
X26073397Y-128945471D02*
X26001969Y-128802614D01*
X26001969Y-128802614D02*
X26001969Y-128374042D01*
X26001969Y-128374042D02*
X26073397Y-128231185D01*
X26073397Y-128231185D02*
X26144826Y-128159757D01*
X26144826Y-128159757D02*
X26287683Y-128088328D01*
X26287683Y-128088328D02*
X26573397Y-128088328D01*
X26573397Y-128088328D02*
X26716255Y-128159757D01*
X27430540Y-129088328D02*
X27430540Y-128088328D01*
X27430540Y-127588328D02*
X27359112Y-127659757D01*
X27359112Y-127659757D02*
X27430540Y-127731185D01*
X27430540Y-127731185D02*
X27501969Y-127659757D01*
X27501969Y-127659757D02*
X27430540Y-127588328D01*
X27430540Y-127588328D02*
X27430540Y-127731185D01*
X28787684Y-128088328D02*
X28787684Y-129302614D01*
X28787684Y-129302614D02*
X28716255Y-129445471D01*
X28716255Y-129445471D02*
X28644826Y-129516900D01*
X28644826Y-129516900D02*
X28501969Y-129588328D01*
X28501969Y-129588328D02*
X28287684Y-129588328D01*
X28287684Y-129588328D02*
X28144826Y-129516900D01*
X28787684Y-129016900D02*
X28644826Y-129088328D01*
X28644826Y-129088328D02*
X28359112Y-129088328D01*
X28359112Y-129088328D02*
X28216255Y-129016900D01*
X28216255Y-129016900D02*
X28144826Y-128945471D01*
X28144826Y-128945471D02*
X28073398Y-128802614D01*
X28073398Y-128802614D02*
X28073398Y-128374042D01*
X28073398Y-128374042D02*
X28144826Y-128231185D01*
X28144826Y-128231185D02*
X28216255Y-128159757D01*
X28216255Y-128159757D02*
X28359112Y-128088328D01*
X28359112Y-128088328D02*
X28644826Y-128088328D01*
X28644826Y-128088328D02*
X28787684Y-128159757D01*
X29501969Y-129088328D02*
X29501969Y-128088328D01*
X29501969Y-127588328D02*
X29430541Y-127659757D01*
X29430541Y-127659757D02*
X29501969Y-127731185D01*
X29501969Y-127731185D02*
X29573398Y-127659757D01*
X29573398Y-127659757D02*
X29501969Y-127588328D01*
X29501969Y-127588328D02*
X29501969Y-127731185D01*
X30001970Y-128088328D02*
X30573398Y-128088328D01*
X30216255Y-127588328D02*
X30216255Y-128874042D01*
X30216255Y-128874042D02*
X30287684Y-129016900D01*
X30287684Y-129016900D02*
X30430541Y-129088328D01*
X30430541Y-129088328D02*
X30573398Y-129088328D01*
X31716256Y-129088328D02*
X31716256Y-128302614D01*
X31716256Y-128302614D02*
X31644827Y-128159757D01*
X31644827Y-128159757D02*
X31501970Y-128088328D01*
X31501970Y-128088328D02*
X31216256Y-128088328D01*
X31216256Y-128088328D02*
X31073398Y-128159757D01*
X31716256Y-129016900D02*
X31573398Y-129088328D01*
X31573398Y-129088328D02*
X31216256Y-129088328D01*
X31216256Y-129088328D02*
X31073398Y-129016900D01*
X31073398Y-129016900D02*
X31001970Y-128874042D01*
X31001970Y-128874042D02*
X31001970Y-128731185D01*
X31001970Y-128731185D02*
X31073398Y-128588328D01*
X31073398Y-128588328D02*
X31216256Y-128516900D01*
X31216256Y-128516900D02*
X31573398Y-128516900D01*
X31573398Y-128516900D02*
X31716256Y-128445471D01*
X32644827Y-129088328D02*
X32501970Y-129016900D01*
X32501970Y-129016900D02*
X32430541Y-128874042D01*
X32430541Y-128874042D02*
X32430541Y-127588328D01*
X32859113Y-129231185D02*
X34001970Y-129231185D01*
X34359112Y-129088328D02*
X34359112Y-127588328D01*
X34501970Y-128516900D02*
X34930541Y-129088328D01*
X34930541Y-128088328D02*
X34359112Y-128659757D01*
X35787684Y-129088328D02*
X35644827Y-129016900D01*
X35644827Y-129016900D02*
X35573398Y-128874042D01*
X35573398Y-128874042D02*
X35573398Y-127588328D01*
X36573398Y-129088328D02*
X36430541Y-129016900D01*
X36430541Y-129016900D02*
X36359112Y-128945471D01*
X36359112Y-128945471D02*
X36287684Y-128802614D01*
X36287684Y-128802614D02*
X36287684Y-128374042D01*
X36287684Y-128374042D02*
X36359112Y-128231185D01*
X36359112Y-128231185D02*
X36430541Y-128159757D01*
X36430541Y-128159757D02*
X36573398Y-128088328D01*
X36573398Y-128088328D02*
X36787684Y-128088328D01*
X36787684Y-128088328D02*
X36930541Y-128159757D01*
X36930541Y-128159757D02*
X37001970Y-128231185D01*
X37001970Y-128231185D02*
X37073398Y-128374042D01*
X37073398Y-128374042D02*
X37073398Y-128802614D01*
X37073398Y-128802614D02*
X37001970Y-128945471D01*
X37001970Y-128945471D02*
X36930541Y-129016900D01*
X36930541Y-129016900D02*
X36787684Y-129088328D01*
X36787684Y-129088328D02*
X36573398Y-129088328D01*
X37716255Y-129088328D02*
X37716255Y-127588328D01*
X37859113Y-128516900D02*
X38287684Y-129088328D01*
X38287684Y-128088328D02*
X37716255Y-128659757D01*
X38930541Y-129088328D02*
X38930541Y-127588328D01*
X39073399Y-128516900D02*
X39501970Y-129088328D01*
X39501970Y-128088328D02*
X38930541Y-128659757D01*
X40716256Y-129016900D02*
X40573399Y-129088328D01*
X40573399Y-129088328D02*
X40287685Y-129088328D01*
X40287685Y-129088328D02*
X40144827Y-129016900D01*
X40144827Y-129016900D02*
X40073399Y-128874042D01*
X40073399Y-128874042D02*
X40073399Y-128302614D01*
X40073399Y-128302614D02*
X40144827Y-128159757D01*
X40144827Y-128159757D02*
X40287685Y-128088328D01*
X40287685Y-128088328D02*
X40573399Y-128088328D01*
X40573399Y-128088328D02*
X40716256Y-128159757D01*
X40716256Y-128159757D02*
X40787685Y-128302614D01*
X40787685Y-128302614D02*
X40787685Y-128445471D01*
X40787685Y-128445471D02*
X40073399Y-128588328D01*
X41430541Y-128945471D02*
X41501970Y-129016900D01*
X41501970Y-129016900D02*
X41430541Y-129088328D01*
X41430541Y-129088328D02*
X41359113Y-129016900D01*
X41359113Y-129016900D02*
X41430541Y-128945471D01*
X41430541Y-128945471D02*
X41430541Y-129088328D01*
X42144827Y-129088328D02*
X42144827Y-127588328D01*
X42287685Y-128516900D02*
X42716256Y-129088328D01*
X42716256Y-128088328D02*
X42144827Y-128659757D01*
X43359113Y-129088328D02*
X43359113Y-128088328D01*
X43359113Y-127588328D02*
X43287685Y-127659757D01*
X43287685Y-127659757D02*
X43359113Y-127731185D01*
X43359113Y-127731185D02*
X43430542Y-127659757D01*
X43430542Y-127659757D02*
X43359113Y-127588328D01*
X43359113Y-127588328D02*
X43359113Y-127731185D01*
X44716257Y-129016900D02*
X44573399Y-129088328D01*
X44573399Y-129088328D02*
X44287685Y-129088328D01*
X44287685Y-129088328D02*
X44144828Y-129016900D01*
X44144828Y-129016900D02*
X44073399Y-128945471D01*
X44073399Y-128945471D02*
X44001971Y-128802614D01*
X44001971Y-128802614D02*
X44001971Y-128374042D01*
X44001971Y-128374042D02*
X44073399Y-128231185D01*
X44073399Y-128231185D02*
X44144828Y-128159757D01*
X44144828Y-128159757D02*
X44287685Y-128088328D01*
X44287685Y-128088328D02*
X44573399Y-128088328D01*
X44573399Y-128088328D02*
X44716257Y-128159757D01*
X46001971Y-129088328D02*
X46001971Y-128302614D01*
X46001971Y-128302614D02*
X45930542Y-128159757D01*
X45930542Y-128159757D02*
X45787685Y-128088328D01*
X45787685Y-128088328D02*
X45501971Y-128088328D01*
X45501971Y-128088328D02*
X45359113Y-128159757D01*
X46001971Y-129016900D02*
X45859113Y-129088328D01*
X45859113Y-129088328D02*
X45501971Y-129088328D01*
X45501971Y-129088328D02*
X45359113Y-129016900D01*
X45359113Y-129016900D02*
X45287685Y-128874042D01*
X45287685Y-128874042D02*
X45287685Y-128731185D01*
X45287685Y-128731185D02*
X45359113Y-128588328D01*
X45359113Y-128588328D02*
X45501971Y-128516900D01*
X45501971Y-128516900D02*
X45859113Y-128516900D01*
X45859113Y-128516900D02*
X46001971Y-128445471D01*
X47359114Y-129088328D02*
X47359114Y-127588328D01*
X47359114Y-129016900D02*
X47216256Y-129088328D01*
X47216256Y-129088328D02*
X46930542Y-129088328D01*
X46930542Y-129088328D02*
X46787685Y-129016900D01*
X46787685Y-129016900D02*
X46716256Y-128945471D01*
X46716256Y-128945471D02*
X46644828Y-128802614D01*
X46644828Y-128802614D02*
X46644828Y-128374042D01*
X46644828Y-128374042D02*
X46716256Y-128231185D01*
X46716256Y-128231185D02*
X46787685Y-128159757D01*
X46787685Y-128159757D02*
X46930542Y-128088328D01*
X46930542Y-128088328D02*
X47216256Y-128088328D01*
X47216256Y-128088328D02*
X47359114Y-128159757D01*
X47716257Y-129231185D02*
X48859114Y-129231185D01*
X49216256Y-128088328D02*
X49216256Y-129588328D01*
X49216256Y-128159757D02*
X49359114Y-128088328D01*
X49359114Y-128088328D02*
X49644828Y-128088328D01*
X49644828Y-128088328D02*
X49787685Y-128159757D01*
X49787685Y-128159757D02*
X49859114Y-128231185D01*
X49859114Y-128231185D02*
X49930542Y-128374042D01*
X49930542Y-128374042D02*
X49930542Y-128802614D01*
X49930542Y-128802614D02*
X49859114Y-128945471D01*
X49859114Y-128945471D02*
X49787685Y-129016900D01*
X49787685Y-129016900D02*
X49644828Y-129088328D01*
X49644828Y-129088328D02*
X49359114Y-129088328D01*
X49359114Y-129088328D02*
X49216256Y-129016900D01*
X51216257Y-129016900D02*
X51073399Y-129088328D01*
X51073399Y-129088328D02*
X50787685Y-129088328D01*
X50787685Y-129088328D02*
X50644828Y-129016900D01*
X50644828Y-129016900D02*
X50573399Y-128945471D01*
X50573399Y-128945471D02*
X50501971Y-128802614D01*
X50501971Y-128802614D02*
X50501971Y-128374042D01*
X50501971Y-128374042D02*
X50573399Y-128231185D01*
X50573399Y-128231185D02*
X50644828Y-128159757D01*
X50644828Y-128159757D02*
X50787685Y-128088328D01*
X50787685Y-128088328D02*
X51073399Y-128088328D01*
X51073399Y-128088328D02*
X51216257Y-128159757D01*
X51859113Y-129088328D02*
X51859113Y-127588328D01*
X51859113Y-128159757D02*
X52001971Y-128088328D01*
X52001971Y-128088328D02*
X52287685Y-128088328D01*
X52287685Y-128088328D02*
X52430542Y-128159757D01*
X52430542Y-128159757D02*
X52501971Y-128231185D01*
X52501971Y-128231185D02*
X52573399Y-128374042D01*
X52573399Y-128374042D02*
X52573399Y-128802614D01*
X52573399Y-128802614D02*
X52501971Y-128945471D01*
X52501971Y-128945471D02*
X52430542Y-129016900D01*
X52430542Y-129016900D02*
X52287685Y-129088328D01*
X52287685Y-129088328D02*
X52001971Y-129088328D01*
X52001971Y-129088328D02*
X51859113Y-129016900D01*
D10*
D11*
X18689000Y-124202200D02*
X126689000Y-124202200D01*
D10*
D11*
X20073398Y-126316900D02*
X20287684Y-126388328D01*
X20287684Y-126388328D02*
X20644826Y-126388328D01*
X20644826Y-126388328D02*
X20787684Y-126316900D01*
X20787684Y-126316900D02*
X20859112Y-126245471D01*
X20859112Y-126245471D02*
X20930541Y-126102614D01*
X20930541Y-126102614D02*
X20930541Y-125959757D01*
X20930541Y-125959757D02*
X20859112Y-125816900D01*
X20859112Y-125816900D02*
X20787684Y-125745471D01*
X20787684Y-125745471D02*
X20644826Y-125674042D01*
X20644826Y-125674042D02*
X20359112Y-125602614D01*
X20359112Y-125602614D02*
X20216255Y-125531185D01*
X20216255Y-125531185D02*
X20144826Y-125459757D01*
X20144826Y-125459757D02*
X20073398Y-125316900D01*
X20073398Y-125316900D02*
X20073398Y-125174042D01*
X20073398Y-125174042D02*
X20144826Y-125031185D01*
X20144826Y-125031185D02*
X20216255Y-124959757D01*
X20216255Y-124959757D02*
X20359112Y-124888328D01*
X20359112Y-124888328D02*
X20716255Y-124888328D01*
X20716255Y-124888328D02*
X20930541Y-124959757D01*
X21573397Y-126388328D02*
X21573397Y-124888328D01*
X22216255Y-126388328D02*
X22216255Y-125602614D01*
X22216255Y-125602614D02*
X22144826Y-125459757D01*
X22144826Y-125459757D02*
X22001969Y-125388328D01*
X22001969Y-125388328D02*
X21787683Y-125388328D01*
X21787683Y-125388328D02*
X21644826Y-125459757D01*
X21644826Y-125459757D02*
X21573397Y-125531185D01*
X23501969Y-126316900D02*
X23359112Y-126388328D01*
X23359112Y-126388328D02*
X23073398Y-126388328D01*
X23073398Y-126388328D02*
X22930540Y-126316900D01*
X22930540Y-126316900D02*
X22859112Y-126174042D01*
X22859112Y-126174042D02*
X22859112Y-125602614D01*
X22859112Y-125602614D02*
X22930540Y-125459757D01*
X22930540Y-125459757D02*
X23073398Y-125388328D01*
X23073398Y-125388328D02*
X23359112Y-125388328D01*
X23359112Y-125388328D02*
X23501969Y-125459757D01*
X23501969Y-125459757D02*
X23573398Y-125602614D01*
X23573398Y-125602614D02*
X23573398Y-125745471D01*
X23573398Y-125745471D02*
X22859112Y-125888328D01*
X24787683Y-126316900D02*
X24644826Y-126388328D01*
X24644826Y-126388328D02*
X24359112Y-126388328D01*
X24359112Y-126388328D02*
X24216254Y-126316900D01*
X24216254Y-126316900D02*
X24144826Y-126174042D01*
X24144826Y-126174042D02*
X24144826Y-125602614D01*
X24144826Y-125602614D02*
X24216254Y-125459757D01*
X24216254Y-125459757D02*
X24359112Y-125388328D01*
X24359112Y-125388328D02*
X24644826Y-125388328D01*
X24644826Y-125388328D02*
X24787683Y-125459757D01*
X24787683Y-125459757D02*
X24859112Y-125602614D01*
X24859112Y-125602614D02*
X24859112Y-125745471D01*
X24859112Y-125745471D02*
X24144826Y-125888328D01*
X25287683Y-125388328D02*
X25859111Y-125388328D01*
X25501968Y-124888328D02*
X25501968Y-126174042D01*
X25501968Y-126174042D02*
X25573397Y-126316900D01*
X25573397Y-126316900D02*
X25716254Y-126388328D01*
X25716254Y-126388328D02*
X25859111Y-126388328D01*
X26359111Y-126245471D02*
X26430540Y-126316900D01*
X26430540Y-126316900D02*
X26359111Y-126388328D01*
X26359111Y-126388328D02*
X26287683Y-126316900D01*
X26287683Y-126316900D02*
X26359111Y-126245471D01*
X26359111Y-126245471D02*
X26359111Y-126388328D01*
X26359111Y-125459757D02*
X26430540Y-125531185D01*
X26430540Y-125531185D02*
X26359111Y-125602614D01*
X26359111Y-125602614D02*
X26287683Y-125531185D01*
X26287683Y-125531185D02*
X26359111Y-125459757D01*
X26359111Y-125459757D02*
X26359111Y-125602614D01*
D10*
D12*
X20243510Y-123380528D02*
X20243510Y-121880528D01*
X20243510Y-121880528D02*
X21100653Y-123380528D01*
X21100653Y-123380528D02*
X21100653Y-121880528D01*
X22029225Y-123380528D02*
X21886368Y-123309100D01*
X21886368Y-123309100D02*
X21814939Y-123237671D01*
X21814939Y-123237671D02*
X21743511Y-123094814D01*
X21743511Y-123094814D02*
X21743511Y-122666242D01*
X21743511Y-122666242D02*
X21814939Y-122523385D01*
X21814939Y-122523385D02*
X21886368Y-122451957D01*
X21886368Y-122451957D02*
X22029225Y-122380528D01*
X22029225Y-122380528D02*
X22243511Y-122380528D01*
X22243511Y-122380528D02*
X22386368Y-122451957D01*
X22386368Y-122451957D02*
X22457797Y-122523385D01*
X22457797Y-122523385D02*
X22529225Y-122666242D01*
X22529225Y-122666242D02*
X22529225Y-123094814D01*
X22529225Y-123094814D02*
X22457797Y-123237671D01*
X22457797Y-123237671D02*
X22386368Y-123309100D01*
X22386368Y-123309100D02*
X22243511Y-123380528D01*
X22243511Y-123380528D02*
X22029225Y-123380528D01*
X23743511Y-123309100D02*
X23600654Y-123380528D01*
X23600654Y-123380528D02*
X23314940Y-123380528D01*
X23314940Y-123380528D02*
X23172082Y-123309100D01*
X23172082Y-123309100D02*
X23100654Y-123166242D01*
X23100654Y-123166242D02*
X23100654Y-122594814D01*
X23100654Y-122594814D02*
X23172082Y-122451957D01*
X23172082Y-122451957D02*
X23314940Y-122380528D01*
X23314940Y-122380528D02*
X23600654Y-122380528D01*
X23600654Y-122380528D02*
X23743511Y-122451957D01*
X23743511Y-122451957D02*
X23814940Y-122594814D01*
X23814940Y-122594814D02*
X23814940Y-122737671D01*
X23814940Y-122737671D02*
X23100654Y-122880528D01*
X25600653Y-123380528D02*
X25600653Y-121880528D01*
X25600653Y-121880528D02*
X26457796Y-123380528D01*
X26457796Y-123380528D02*
X26457796Y-121880528D01*
X27386368Y-123380528D02*
X27243511Y-123309100D01*
X27243511Y-123309100D02*
X27172082Y-123237671D01*
X27172082Y-123237671D02*
X27100654Y-123094814D01*
X27100654Y-123094814D02*
X27100654Y-122666242D01*
X27100654Y-122666242D02*
X27172082Y-122523385D01*
X27172082Y-122523385D02*
X27243511Y-122451957D01*
X27243511Y-122451957D02*
X27386368Y-122380528D01*
X27386368Y-122380528D02*
X27600654Y-122380528D01*
X27600654Y-122380528D02*
X27743511Y-122451957D01*
X27743511Y-122451957D02*
X27814940Y-122523385D01*
X27814940Y-122523385D02*
X27886368Y-122666242D01*
X27886368Y-122666242D02*
X27886368Y-123094814D01*
X27886368Y-123094814D02*
X27814940Y-123237671D01*
X27814940Y-123237671D02*
X27743511Y-123309100D01*
X27743511Y-123309100D02*
X27600654Y-123380528D01*
X27600654Y-123380528D02*
X27386368Y-123380528D01*
X28529225Y-122380528D02*
X28529225Y-123380528D01*
X28529225Y-122523385D02*
X28600654Y-122451957D01*
X28600654Y-122451957D02*
X28743511Y-122380528D01*
X28743511Y-122380528D02*
X28957797Y-122380528D01*
X28957797Y-122380528D02*
X29100654Y-122451957D01*
X29100654Y-122451957D02*
X29172083Y-122594814D01*
X29172083Y-122594814D02*
X29172083Y-123380528D01*
X29814940Y-123309100D02*
X29957797Y-123380528D01*
X29957797Y-123380528D02*
X30243511Y-123380528D01*
X30243511Y-123380528D02*
X30386368Y-123309100D01*
X30386368Y-123309100D02*
X30457797Y-123166242D01*
X30457797Y-123166242D02*
X30457797Y-123094814D01*
X30457797Y-123094814D02*
X30386368Y-122951957D01*
X30386368Y-122951957D02*
X30243511Y-122880528D01*
X30243511Y-122880528D02*
X30029226Y-122880528D01*
X30029226Y-122880528D02*
X29886368Y-122809100D01*
X29886368Y-122809100D02*
X29814940Y-122666242D01*
X29814940Y-122666242D02*
X29814940Y-122594814D01*
X29814940Y-122594814D02*
X29886368Y-122451957D01*
X29886368Y-122451957D02*
X30029226Y-122380528D01*
X30029226Y-122380528D02*
X30243511Y-122380528D01*
X30243511Y-122380528D02*
X30386368Y-122451957D01*
X31672083Y-123309100D02*
X31529226Y-123380528D01*
X31529226Y-123380528D02*
X31243512Y-123380528D01*
X31243512Y-123380528D02*
X31100654Y-123309100D01*
X31100654Y-123309100D02*
X31029226Y-123166242D01*
X31029226Y-123166242D02*
X31029226Y-122594814D01*
X31029226Y-122594814D02*
X31100654Y-122451957D01*
X31100654Y-122451957D02*
X31243512Y-122380528D01*
X31243512Y-122380528D02*
X31529226Y-122380528D01*
X31529226Y-122380528D02*
X31672083Y-122451957D01*
X31672083Y-122451957D02*
X31743512Y-122594814D01*
X31743512Y-122594814D02*
X31743512Y-122737671D01*
X31743512Y-122737671D02*
X31029226Y-122880528D01*
X32386368Y-122380528D02*
X32386368Y-123380528D01*
X32386368Y-122523385D02*
X32457797Y-122451957D01*
X32457797Y-122451957D02*
X32600654Y-122380528D01*
X32600654Y-122380528D02*
X32814940Y-122380528D01*
X32814940Y-122380528D02*
X32957797Y-122451957D01*
X32957797Y-122451957D02*
X33029226Y-122594814D01*
X33029226Y-122594814D02*
X33029226Y-123380528D01*
X33672083Y-123309100D02*
X33814940Y-123380528D01*
X33814940Y-123380528D02*
X34100654Y-123380528D01*
X34100654Y-123380528D02*
X34243511Y-123309100D01*
X34243511Y-123309100D02*
X34314940Y-123166242D01*
X34314940Y-123166242D02*
X34314940Y-123094814D01*
X34314940Y-123094814D02*
X34243511Y-122951957D01*
X34243511Y-122951957D02*
X34100654Y-122880528D01*
X34100654Y-122880528D02*
X33886369Y-122880528D01*
X33886369Y-122880528D02*
X33743511Y-122809100D01*
X33743511Y-122809100D02*
X33672083Y-122666242D01*
X33672083Y-122666242D02*
X33672083Y-122594814D01*
X33672083Y-122594814D02*
X33743511Y-122451957D01*
X33743511Y-122451957D02*
X33886369Y-122380528D01*
X33886369Y-122380528D02*
X34100654Y-122380528D01*
X34100654Y-122380528D02*
X34243511Y-122451957D01*
D10*
D11*
X38689000Y-134202200D02*
X38689000Y-137202200D01*
D10*
D11*
X102689000Y-134202200D02*
X102689000Y-140702200D01*
D14*
%TO.C,SW103*%
X47690000Y26540000D02*
X47690000Y27540000D01*
X43800000Y27540000D02*
X44910000Y27540000D01*
X47690000Y27540000D02*
X48800000Y27540000D01*
X48800000Y27540000D02*
X48800000Y32390000D01*
X43800000Y32390000D02*
X43800000Y27540000D01*
X43800000Y32390000D02*
X44930000Y32390000D01*
X47670000Y32390000D02*
X48800000Y32390000D01*
X45800000Y30920000D02*
X46850000Y30920000D01*
X46850000Y29140000D01*
X45800000Y29140000D01*
X45800000Y30920000D01*
%TO.C,SW102*%
X53990000Y26540000D02*
X53990000Y27540000D01*
X50100000Y27540000D02*
X51210000Y27540000D01*
X53990000Y27540000D02*
X55100000Y27540000D01*
X55100000Y27540000D02*
X55100000Y32390000D01*
X50100000Y32390000D02*
X50100000Y27540000D01*
X50100000Y32390000D02*
X51230000Y32390000D01*
X53970000Y32390000D02*
X55100000Y32390000D01*
X52100000Y30920000D02*
X53150000Y30920000D01*
X53150000Y29140000D01*
X52100000Y29140000D01*
X52100000Y30920000D01*
%TO.C,D202*%
X19961477Y12511477D02*
X6461477Y12511477D01*
X6461477Y32371477D01*
X19961477Y32371477D01*
X19961477Y12511477D01*
D15*
X18311477Y30241477D02*
G75*
G02*
X18211477Y30241477I-50000J0D01*
G01*
X18211477Y30241477D02*
G75*
G02*
X18311477Y30241477I50000J0D01*
G01*
%TO.C,D201*%
D14*
X19961477Y32571477D02*
X6461477Y32571477D01*
X6461477Y52431477D01*
X19961477Y52431477D01*
X19961477Y32571477D01*
D15*
X18311477Y50301477D02*
G75*
G02*
X18211477Y50301477I-50000J0D01*
G01*
X18211477Y50301477D02*
G75*
G02*
X18311477Y50301477I50000J0D01*
G01*
D14*
%TO.C,D101*%
X51210000Y17045000D02*
X51210000Y13955000D01*
X56760000Y15500462D02*
G75*
G02*
X51210000Y13955170I-2990000J-462D01*
G01*
X51210000Y17044830D02*
G75*
G02*
X56760000Y15499538I2560000J-1544830D01*
G01*
X56270000Y15500000D02*
G75*
G02*
X51270000Y15500000I-2500000J0D01*
G01*
X51270000Y15500000D02*
G75*
G02*
X56270000Y15500000I2500000J0D01*
G01*
%TO.C,D102*%
X51165000Y10375000D02*
X51165000Y7285000D01*
X56715000Y8830462D02*
G75*
G02*
X51165000Y7285170I-2990000J-462D01*
G01*
X51165000Y10374830D02*
G75*
G02*
X56715000Y8829538I2560000J-1544830D01*
G01*
X56225000Y8830000D02*
G75*
G02*
X51225000Y8830000I-2500000J0D01*
G01*
X51225000Y8830000D02*
G75*
G02*
X56225000Y8830000I2500000J0D01*
G01*
%TO.C,SW101*%
X60290000Y26540000D02*
X60290000Y27540000D01*
X56400000Y27540000D02*
X57510000Y27540000D01*
X60290000Y27540000D02*
X61400000Y27540000D01*
X61400000Y27540000D02*
X61400000Y32390000D01*
X56400000Y32390000D02*
X56400000Y27540000D01*
X56400000Y32390000D02*
X57530000Y32390000D01*
X60270000Y32390000D02*
X61400000Y32390000D01*
X58400000Y30920000D02*
X59450000Y30920000D01*
X59450000Y29140000D01*
X58400000Y29140000D01*
X58400000Y30920000D01*
%TD*%
D16*
X0Y55800000D02*
X73100000Y55800000D01*
X73100000Y0D01*
X0Y0D01*
X0Y55800000D01*
M02*
